<svg version="1.1" xmlns="http://www.w3.org/2000/svg" xmlns:xlink="http://www.w3.org/1999/xlink" width="659" height="291"><defs><clipPath id="pLppXaVggCZQ"><path fill="none" stroke="none" d=" M 0 0 L 659 0 L 659 291 L 0 291 L 0 0 Z"/></clipPath></defs><g transform="scale(1,1)" clip-path="url(#pLppXaVggCZQ)"><g><path fill="none" stroke="rgb(0,153,204)" paint-order="fill stroke markers" d=" M 615.5079468162535 207.19941331965742 C 615.5079468162535 250.09789242584344 580.7318583749397 284.8739808671573 537.8333792687538 284.8739808671573 C 494.9349001625679 284.8739808671573 460.1588117212541 250.09789242584344 460.1588117212541 207.19941331965742 C 460.1588117212541 164.3009342134714 494.9349001625679 129.52484577215756 537.8333792687538 129.52484577215756 C 580.7318583749397 129.52484577215756 615.5079468162535 164.3009342134714 615.5079468162535 207.19941331965742 Z" stroke-opacity="0.6980392156862745" stroke-linecap="round" stroke-linejoin="round" stroke-miterlimit="10" stroke-width="2.5"/><path fill="none" stroke="rgb(127,0,255)" paint-order="fill stroke markers" d=" M 183.2489784144176 207.19941331965742 L 185.1069344973519 203.3900335566798 L 186.86695154043628 199.58982162261105 L 188.52479380553712 195.80792328264033 L 190.07647145305063 192.05344022761727 L 191.51825014403465 188.33540816950324 L 192.84666002744115 184.66277509561036 L 194.0585040908193 181.04437973396293 L 195.1508658543933 177.48893028160728 L 196.1211163899968 174.00498344706318 L 196.96692064797287 170.600923857355 L 197.6862430768117 167.2849438791817 L 198.27735252200313 164.06502390278956 L 198.7388263923126 160.94891313599726 L 199.06955408345485 157.94411095459526 L 199.2687396509254 155.0578488540022 L 199.33590372555724 152.29707304561487 L 199.2708846671929 149.66842773973562 L 199.0738389536949 147.1782391553098 L 198.74524080435893 144.83250029495542 L 198.28588103863615 142.63685652192703 L 197.69686517291012 140.5965919737243 L 196.97961075991068 138.716616845043 L 196.1358439771658 137.0014555706744 L 195.16759547270334 135.45523593679178 L 194.07719547799994 134.08167914683008 L 192.8672681999385 132.88409086586614 L 191.54072550527104 131.86535326505282 L 190.10075991278575 131.027918085253 L 188.55083691004438 130.3738007365671 L 186.89468661318006 129.90457544795424 L 185.13629478982784 129.62137147862018 L 183.27989326679264 129.52487040029018 L 181.3299497455399 129.615304456907 L 179.2911570500191 129.89245600570197 L 177.16842183269767 130.35565804098405 L 174.96685276598478 131.00379579938652 L 172.69174824746486 131.83530944270785 L 170.34858364852997 132.84819781189026 L 167.9429981370984 134.04002324310125 L 165.48078110613358 135.40791743432783 L 162.9678582406237 136.94858834836418 L 160.4102772565556 138.65832813558035 L 157.81419334620227 140.53302205740388 L 155.18585436475388 142.5681583890394 L 152.53158579394113 144.75883927759338 L 149.85777551883973 147.0997925294727 L 147.1708584544914 149.58538429868878 L 144.4773010593411 152.20963264553086 L 141.78358577275986 154.966221932978 L 139.09619541410757 157.848518026202 L 136.42159758088096 160.84958425858218 L 133.7662290834956 163.962198125807 L 131.13648045416102 167.17886866788578 L 128.53868056713165 170.49185449723814 L 125.97908140734604 173.89318242947434 L 123.46384302411207 177.37466667202816 L 120.99901870604805 180.92792852446271 L 118.59054041295968 184.54441654303693 L 116.24420449971188 188.21542712100432 L 113.96565776645423 191.932125435114 L 111.76038386877136 195.68556670790363 L 109.63369012046473 199.46671773461298 L 107.5906947207266 203.26647862291102 L 105.63631443644604 207.07570469311605 L 103.77525276929097 210.88522848620332 L 102.01198863604438 214.68588182663456 L 100.3507655894368 218.4685178869116 L 98.79558160541661 222.22403320075315 L 97.35017946143695 225.9433895719162 L 96.01803772891492 229.61763582593585 L 94.80236240154136 233.23792935243407 L 93.70607917958861 236.7955573861536 L 92.73182642878544 240.28195797550026 L 91.88194883070445 243.68874058813037 L 91.15849173994334 247.0077063039925 L 90.56319626168033 250.23086754722638 L 90.09749506145008 253.35046730943114 L 89.76250891722486 256.35899781803926 L 89.55904402209859 259.2492186048679 L 89.4875900440654 262.01417393136364 L 89.54831894756214 264.64720952860307 L 89.74108457961063 267.1419886117635 L 90.06542302155643 269.4925071305209 L 90.52055370555662 271.69310821867464 L 91.10538129313052 273.738495808222 L 91.8184983112516 275.62374737511965 L 92.65818853963708 277.3443257860571 L 93.62243114108267 278.8960902177303 L 94.7089055249026 280.2753061223387 L 95.91499693177 281.4786542153191 L 97.23780272651734 282.5032384636897 L 98.67413938375194 283.346593055776 L 100.22055014947489 284.0066883355473 L 101.87331336026455 284.48193568727993 L 103.62845140000334 284.7711913587935 L 105.48174027259192 284.8737592140573 L 107.42871976761292 284.78939240854373 L 109.46470419447894 284.5182939832952 L 111.58479365923137 284.0611163762767 L 113.78388585685111 283.4189598521882 L 116.05668835070101 282.59336985451705 L 118.39773130954777 281.5863332862024 L 120.80138067150976 280.4002737278631 L 123.26185170325026 279.0380456050968 L 125.77322292178316 277.5029273188876 L 128.3294503453869 275.7986133556557 L 130.92438203932932 273.92920539593524 L 133.5517729213975 271.89920244308166 L 136.20529979160028 269.7134899957626 L 138.878576549873 267.37732829029136 L 141.56516956515992 264.8963396411002 L 144.25861315888764 262.27649490981906 L 146.9524251655648 259.52409913552475 L 149.64012253306055 256.64577636074335 L 152.31523692501642 253.64845368972428 L 154.97133028784285 250.5393446173518 L 157.60201034483572 247.32593166881574 L 160.20094598012398 244.0159483918217 L 162.76188247542476 240.6173607446786 L 165.27865656293704 237.1383479250562 L 167.7452112581458 233.5872826855511 L 170.15561043683994 229.9727111834343 L 172.50405312126264 226.30333241307568 L 174.78488744101182 222.5879772705426 L 176.9926242350917 218.83558730075885 L 179.1219502623809 215.0551931783702 L 181.16774098872315 211.25589297410707 L 183.1250729198676 207.4468302589477" stroke-opacity="0.6980392156862745" stroke-linecap="round" stroke-linejoin="round" stroke-miterlimit="10" stroke-width="2.5"/><g transform="scale(27,27) translate(0.3333333333333333,1.2222222222222223) scale(0.1,0.1)"><text fill="rgb(127,0,255)" stroke="none" font-family="Serif" font-size="10px" font-style="normal" font-weight="bold" text-decoration="normal" x="0" y="0" text-anchor="start" dominant-baseline="alphabetic">普通二次型</text><g transform="scale(10,10) translate(-0.3333333333333333,-1.2222222222222223)"><g transform="translate(0.3333333333333333,2.516780022222222)"><path fill="rgb(127,0,255)" stroke="none" paint-order="stroke fill markers" d=" M 0.515 -0.317 L 0.492 -0.228 Q 0.487 -0.20600000000000002 0.47000000000000003 -0.138 Q 0.456 -0.082 0.456 -0.065 Q 0.456 -0.028 0.47900000000000004 -0.028 Q 0.522 -0.028 0.547 -0.128 Q 0.554 -0.156 0.555 -0.157 Q 0.56 -0.162 0.5750000000000001 -0.162 Q 0.599 -0.162 0.599 -0.148 Q 0.599 -0.14 0.588 -0.1075 Q 0.577 -0.075 0.561 -0.049 Q 0.528 0.008 0.47400000000000003 0.008 Q 0.397 0.008 0.359 -0.046 Q 0.301 0.008 0.22 0.008 Q 0.148 0.008 0.0965 -0.032 Q 0.045 -0.07200000000000001 0.045 -0.157 Q 0.045 -0.268 0.1245 -0.36 Q 0.20400000000000001 -0.452 0.327 -0.452 Q 0.394 -0.452 0.433 -0.41000000000000003 Q 0.453 -0.435 0.484 -0.435 Q 0.502 -0.435 0.5165 -0.424 Q 0.531 -0.41300000000000003 0.531 -0.391 Q 0.531 -0.384 0.515 -0.317 M 0.34900000000000003 -0.093 L 0.41000000000000003 -0.34400000000000003 L 0.41200000000000003 -0.358 Q 0.41200000000000003 -0.372 0.3895 -0.394 Q 0.367 -0.41600000000000004 0.329 -0.41600000000000004 Q 0.25 -0.41600000000000004 0.20800000000000002 -0.318 Q 0.194 -0.28400000000000003 0.176 -0.212 Q 0.158 -0.14 0.158 -0.10400000000000001 Q 0.158 -0.028 0.225 -0.028 Q 0.259 -0.028 0.292 -0.0465 Q 0.325 -0.065 0.34900000000000003 -0.093 Z"/></g><g transform="translate(0.9662013333333332,2.516780022222222)"><path fill="rgb(127,0,255)" stroke="none" paint-order="stroke fill markers" d=" M 0.536 -0.401 Q 0.516 -0.41600000000000004 0.488 -0.41600000000000004 Q 0.461 -0.41600000000000004 0.4375 -0.392 Q 0.41400000000000003 -0.368 0.403 -0.325 Q 0.4 -0.316 0.385 -0.257 Q 0.37 -0.198 0.368 -0.189 Q 0.34600000000000003 -0.099 0.34600000000000003 -0.078 Q 0.34600000000000003 -0.028 0.402 -0.028 Q 0.44 -0.028 0.482 -0.0575 Q 0.524 -0.08700000000000001 0.544 -0.149 Q 0.548 -0.162 0.5670000000000001 -0.162 Q 0.591 -0.162 0.591 -0.148 Q 0.591 -0.134 0.578 -0.1095 Q 0.5650000000000001 -0.085 0.542 -0.058 Q 0.519 -0.031 0.48 -0.0115 Q 0.441 0.008 0.397 0.008 Q 0.295 0.008 0.259 -0.053 Q 0.215 0.008 0.152 0.008 Q 0.105 0.008 0.07150000000000001 -0.0165 Q 0.038 -0.041 0.038 -0.08 Q 0.038 -0.115 0.06 -0.1365 Q 0.082 -0.158 0.11 -0.158 Q 0.133 -0.158 0.1465 -0.14400000000000002 Q 0.16 -0.13 0.16 -0.112 Q 0.16 -0.091 0.1455 -0.07050000000000001 Q 0.131 -0.05 0.106 -0.043000000000000003 Q 0.126 -0.028 0.154 -0.028 Q 0.181 -0.028 0.20450000000000002 -0.051500000000000004 Q 0.228 -0.075 0.23900000000000002 -0.11900000000000001 L 0.273 -0.256 Q 0.296 -0.34800000000000003 0.296 -0.366 Q 0.296 -0.41600000000000004 0.24 -0.41600000000000004 Q 0.202 -0.41600000000000004 0.16 -0.3865 Q 0.11800000000000001 -0.357 0.098 -0.295 Q 0.094 -0.28200000000000003 0.075 -0.28200000000000003 Q 0.051000000000000004 -0.28200000000000003 0.051000000000000004 -0.296 Q 0.051000000000000004 -0.31 0.064 -0.3345 Q 0.077 -0.359 0.1 -0.386 Q 0.123 -0.41300000000000003 0.162 -0.4325 Q 0.201 -0.452 0.245 -0.452 Q 0.34700000000000003 -0.452 0.383 -0.391 Q 0.427 -0.452 0.49 -0.452 Q 0.537 -0.452 0.5705 -0.4275 Q 0.604 -0.403 0.604 -0.364 Q 0.604 -0.329 0.582 -0.3075 Q 0.56 -0.28600000000000003 0.532 -0.28600000000000003 Q 0.509 -0.28600000000000003 0.4955 -0.3 Q 0.482 -0.314 0.482 -0.332 Q 0.482 -0.353 0.4965 -0.3735 Q 0.511 -0.394 0.536 -0.401 Z"/></g><g transform="translate(1.6252283333333333,2.1038880222222223) scale(0.7,0.7)"><path fill="rgb(127,0,255)" stroke="none" paint-order="stroke fill markers" d=" M 0.517 -0.222 L 0.486 0 L 0.057 0 L 0.057 -0.018000000000000002 Q 0.057 -0.034 0.059000000000000004 -0.0385 Q 0.061 -0.043000000000000003 0.07 -0.052000000000000005 L 0.271 -0.257 Q 0.379 -0.367 0.379 -0.465 Q 0.379 -0.525 0.34400000000000003 -0.5665 Q 0.309 -0.608 0.247 -0.608 Q 0.186 -0.608 0.14400000000000002 -0.5730000000000001 Q 0.155 -0.5700000000000001 0.166 -0.5645 Q 0.177 -0.559 0.189 -0.542 Q 0.201 -0.525 0.201 -0.501 Q 0.201 -0.466 0.1785 -0.4475 Q 0.156 -0.429 0.129 -0.429 Q 0.10400000000000001 -0.429 0.0805 -0.4465 Q 0.057 -0.464 0.057 -0.503 Q 0.057 -0.5700000000000001 0.11850000000000001 -0.6125 Q 0.18 -0.655 0.272 -0.655 Q 0.379 -0.655 0.448 -0.603 Q 0.517 -0.551 0.517 -0.466 Q 0.517 -0.431 0.507 -0.404 Q 0.497 -0.377 0.46900000000000003 -0.34750000000000003 Q 0.441 -0.318 0.417 -0.299 Q 0.393 -0.28 0.339 -0.24 Q 0.292 -0.20600000000000002 0.195 -0.125 L 0.342 -0.125 Q 0.433 -0.125 0.444 -0.131 Q 0.457 -0.138 0.47000000000000003 -0.222 L 0.517 -0.222 Z"/></g><g transform="translate(1.6252283333333333,2.763997022222222) scale(0.7,0.7)"><path fill="rgb(127,0,255)" stroke="none" paint-order="stroke fill markers" d=" M 0.354 -0.623 L 0.354 -0.047 L 0.494 -0.047 L 0.494 0 Q 0.45 -0.003 0.295 -0.003 Q 0.14 -0.003 0.096 0 L 0.096 -0.047 L 0.23500000000000001 -0.047 L 0.23500000000000001 -0.5640000000000001 Q 0.17300000000000001 -0.544 0.105 -0.544 L 0.085 -0.544 L 0.085 -0.591 L 0.105 -0.591 Q 0.229 -0.591 0.306 -0.648 Q 0.315 -0.655 0.328 -0.655 Q 0.34600000000000003 -0.655 0.35000000000000003 -0.6485 Q 0.354 -0.642 0.354 -0.623 Z"/></g><g transform="translate(2.2684676407407407,2.516780022222222)"><path fill="rgb(127,0,255)" stroke="none" paint-order="stroke fill markers" d=" M 0.47700000000000004 -0.22 L 0.47700000000000004 0.09 Q 0.47700000000000004 0.132 0.446 0.132 Q 0.41600000000000004 0.132 0.41600000000000004 0.09 L 0.41600000000000004 -0.22 L 0.107 -0.22 Q 0.064 -0.22 0.064 -0.25 Q 0.064 -0.281 0.107 -0.281 L 0.41600000000000004 -0.281 L 0.41600000000000004 -0.591 Q 0.41600000000000004 -0.633 0.447 -0.633 Q 0.47700000000000004 -0.633 0.47700000000000004 -0.591 L 0.47700000000000004 -0.281 L 0.786 -0.281 Q 0.8290000000000001 -0.281 0.8290000000000001 -0.25 Q 0.8290000000000001 -0.22 0.786 -0.22 L 0.47700000000000004 -0.22 Z"/></g><g transform="translate(3.3851305296296292,2.516780022222222)"><path fill="rgb(127,0,255)" stroke="none" paint-order="stroke fill markers" d=" M 0.517 -0.222 L 0.486 0 L 0.057 0 L 0.057 -0.018000000000000002 Q 0.057 -0.034 0.059000000000000004 -0.0385 Q 0.061 -0.043000000000000003 0.07 -0.052000000000000005 L 0.271 -0.257 Q 0.379 -0.367 0.379 -0.465 Q 0.379 -0.525 0.34400000000000003 -0.5665 Q 0.309 -0.608 0.247 -0.608 Q 0.186 -0.608 0.14400000000000002 -0.5730000000000001 Q 0.155 -0.5700000000000001 0.166 -0.5645 Q 0.177 -0.559 0.189 -0.542 Q 0.201 -0.525 0.201 -0.501 Q 0.201 -0.466 0.1785 -0.4475 Q 0.156 -0.429 0.129 -0.429 Q 0.10400000000000001 -0.429 0.0805 -0.4465 Q 0.057 -0.464 0.057 -0.503 Q 0.057 -0.5700000000000001 0.11850000000000001 -0.6125 Q 0.18 -0.655 0.272 -0.655 Q 0.379 -0.655 0.448 -0.603 Q 0.517 -0.551 0.517 -0.466 Q 0.517 -0.431 0.507 -0.404 Q 0.497 -0.377 0.46900000000000003 -0.34750000000000003 Q 0.441 -0.318 0.417 -0.299 Q 0.393 -0.28 0.339 -0.24 Q 0.292 -0.20600000000000002 0.195 -0.125 L 0.342 -0.125 Q 0.433 -0.125 0.444 -0.131 Q 0.457 -0.138 0.47000000000000003 -0.222 L 0.517 -0.222 Z"/></g><g transform="translate(3.960127529629629,2.516780022222222)"><path fill="rgb(127,0,255)" stroke="none" paint-order="stroke fill markers" d=" M 0.281 -0.659 L 0.222 -0.42 Q 0.274 -0.452 0.331 -0.452 Q 0.403 -0.452 0.4545 -0.41200000000000003 Q 0.506 -0.372 0.506 -0.28700000000000003 Q 0.506 -0.23700000000000002 0.4865 -0.1855 Q 0.467 -0.134 0.4325 -0.0905 Q 0.398 -0.047 0.3425 -0.0195 Q 0.28700000000000003 0.008 0.222 0.008 Q 0.154 0.008 0.10300000000000001 -0.03 Q 0.052000000000000005 -0.068 0.052000000000000005 -0.155 Q 0.052000000000000005 -0.19 0.066 -0.246 L 0.135 -0.522 Q 0.14400000000000002 -0.556 0.163 -0.637 Q 0.15 -0.639 0.121 -0.639 Q 0.095 -0.639 0.095 -0.657 Q 0.095 -0.67 0.101 -0.677 Q 0.107 -0.684 0.112 -0.685 Q 0.117 -0.686 0.127 -0.687 L 0.256 -0.6930000000000001 Q 0.258 -0.6940000000000001 0.263 -0.6940000000000001 Q 0.28500000000000003 -0.6940000000000001 0.28500000000000003 -0.676 Q 0.28500000000000003 -0.673 0.281 -0.659 M 0.224 -0.028 Q 0.253 -0.028 0.28650000000000003 -0.05 Q 0.32 -0.07200000000000001 0.343 -0.126 Q 0.357 -0.16 0.375 -0.232 Q 0.393 -0.304 0.393 -0.34 Q 0.393 -0.41600000000000004 0.326 -0.41600000000000004 Q 0.28500000000000003 -0.41600000000000004 0.2465 -0.3905 Q 0.20800000000000002 -0.365 0.203 -0.34800000000000003 Q 0.187 -0.279 0.169 -0.211 Q 0.152 -0.136 0.152 -0.111 Q 0.152 -0.028 0.224 -0.028 Z"/></g><g transform="translate(4.480957529629629,2.516780022222222)"><path fill="rgb(127,0,255)" stroke="none" paint-order="stroke fill markers" d=" M 0.536 -0.401 Q 0.516 -0.41600000000000004 0.488 -0.41600000000000004 Q 0.461 -0.41600000000000004 0.4375 -0.392 Q 0.41400000000000003 -0.368 0.403 -0.325 Q 0.4 -0.316 0.385 -0.257 Q 0.37 -0.198 0.368 -0.189 Q 0.34600000000000003 -0.099 0.34600000000000003 -0.078 Q 0.34600000000000003 -0.028 0.402 -0.028 Q 0.44 -0.028 0.482 -0.0575 Q 0.524 -0.08700000000000001 0.544 -0.149 Q 0.548 -0.162 0.5670000000000001 -0.162 Q 0.591 -0.162 0.591 -0.148 Q 0.591 -0.134 0.578 -0.1095 Q 0.5650000000000001 -0.085 0.542 -0.058 Q 0.519 -0.031 0.48 -0.0115 Q 0.441 0.008 0.397 0.008 Q 0.295 0.008 0.259 -0.053 Q 0.215 0.008 0.152 0.008 Q 0.105 0.008 0.07150000000000001 -0.0165 Q 0.038 -0.041 0.038 -0.08 Q 0.038 -0.115 0.06 -0.1365 Q 0.082 -0.158 0.11 -0.158 Q 0.133 -0.158 0.1465 -0.14400000000000002 Q 0.16 -0.13 0.16 -0.112 Q 0.16 -0.091 0.1455 -0.07050000000000001 Q 0.131 -0.05 0.106 -0.043000000000000003 Q 0.126 -0.028 0.154 -0.028 Q 0.181 -0.028 0.20450000000000002 -0.051500000000000004 Q 0.228 -0.075 0.23900000000000002 -0.11900000000000001 L 0.273 -0.256 Q 0.296 -0.34800000000000003 0.296 -0.366 Q 0.296 -0.41600000000000004 0.24 -0.41600000000000004 Q 0.202 -0.41600000000000004 0.16 -0.3865 Q 0.11800000000000001 -0.357 0.098 -0.295 Q 0.094 -0.28200000000000003 0.075 -0.28200000000000003 Q 0.051000000000000004 -0.28200000000000003 0.051000000000000004 -0.296 Q 0.051000000000000004 -0.31 0.064 -0.3345 Q 0.077 -0.359 0.1 -0.386 Q 0.123 -0.41300000000000003 0.162 -0.4325 Q 0.201 -0.452 0.245 -0.452 Q 0.34700000000000003 -0.452 0.383 -0.391 Q 0.427 -0.452 0.49 -0.452 Q 0.537 -0.452 0.5705 -0.4275 Q 0.604 -0.403 0.604 -0.364 Q 0.604 -0.329 0.582 -0.3075 Q 0.56 -0.28600000000000003 0.532 -0.28600000000000003 Q 0.509 -0.28600000000000003 0.4955 -0.3 Q 0.482 -0.314 0.482 -0.332 Q 0.482 -0.353 0.4965 -0.3735 Q 0.511 -0.394 0.536 -0.401 Z"/></g><g transform="translate(5.139984529629629,2.666780022222222) scale(0.7,0.7)"><path fill="rgb(127,0,255)" stroke="none" paint-order="stroke fill markers" d=" M 0.354 -0.623 L 0.354 -0.047 L 0.494 -0.047 L 0.494 0 Q 0.45 -0.003 0.295 -0.003 Q 0.14 -0.003 0.096 0 L 0.096 -0.047 L 0.23500000000000001 -0.047 L 0.23500000000000001 -0.5640000000000001 Q 0.17300000000000001 -0.544 0.105 -0.544 L 0.085 -0.544 L 0.085 -0.591 L 0.105 -0.591 Q 0.229 -0.591 0.306 -0.648 Q 0.315 -0.655 0.328 -0.655 Q 0.34600000000000003 -0.655 0.35000000000000003 -0.6485 Q 0.354 -0.642 0.354 -0.623 Z"/></g><g transform="translate(5.542482429629629,2.516780022222222)"><path fill="rgb(127,0,255)" stroke="none" paint-order="stroke fill markers" d=" M 0.536 -0.401 Q 0.516 -0.41600000000000004 0.488 -0.41600000000000004 Q 0.461 -0.41600000000000004 0.4375 -0.392 Q 0.41400000000000003 -0.368 0.403 -0.325 Q 0.4 -0.316 0.385 -0.257 Q 0.37 -0.198 0.368 -0.189 Q 0.34600000000000003 -0.099 0.34600000000000003 -0.078 Q 0.34600000000000003 -0.028 0.402 -0.028 Q 0.44 -0.028 0.482 -0.0575 Q 0.524 -0.08700000000000001 0.544 -0.149 Q 0.548 -0.162 0.5670000000000001 -0.162 Q 0.591 -0.162 0.591 -0.148 Q 0.591 -0.134 0.578 -0.1095 Q 0.5650000000000001 -0.085 0.542 -0.058 Q 0.519 -0.031 0.48 -0.0115 Q 0.441 0.008 0.397 0.008 Q 0.295 0.008 0.259 -0.053 Q 0.215 0.008 0.152 0.008 Q 0.105 0.008 0.07150000000000001 -0.0165 Q 0.038 -0.041 0.038 -0.08 Q 0.038 -0.115 0.06 -0.1365 Q 0.082 -0.158 0.11 -0.158 Q 0.133 -0.158 0.1465 -0.14400000000000002 Q 0.16 -0.13 0.16 -0.112 Q 0.16 -0.091 0.1455 -0.07050000000000001 Q 0.131 -0.05 0.106 -0.043000000000000003 Q 0.126 -0.028 0.154 -0.028 Q 0.181 -0.028 0.20450000000000002 -0.051500000000000004 Q 0.228 -0.075 0.23900000000000002 -0.11900000000000001 L 0.273 -0.256 Q 0.296 -0.34800000000000003 0.296 -0.366 Q 0.296 -0.41600000000000004 0.24 -0.41600000000000004 Q 0.202 -0.41600000000000004 0.16 -0.3865 Q 0.11800000000000001 -0.357 0.098 -0.295 Q 0.094 -0.28200000000000003 0.075 -0.28200000000000003 Q 0.051000000000000004 -0.28200000000000003 0.051000000000000004 -0.296 Q 0.051000000000000004 -0.31 0.064 -0.3345 Q 0.077 -0.359 0.1 -0.386 Q 0.123 -0.41300000000000003 0.162 -0.4325 Q 0.201 -0.452 0.245 -0.452 Q 0.34700000000000003 -0.452 0.383 -0.391 Q 0.427 -0.452 0.49 -0.452 Q 0.537 -0.452 0.5705 -0.4275 Q 0.604 -0.403 0.604 -0.364 Q 0.604 -0.329 0.582 -0.3075 Q 0.56 -0.28600000000000003 0.532 -0.28600000000000003 Q 0.509 -0.28600000000000003 0.4955 -0.3 Q 0.482 -0.314 0.482 -0.332 Q 0.482 -0.353 0.4965 -0.3735 Q 0.511 -0.394 0.536 -0.401 Z"/></g><g transform="translate(6.201509429629629,2.666780022222222) scale(0.7,0.7)"><path fill="rgb(127,0,255)" stroke="none" paint-order="stroke fill markers" d=" M 0.517 -0.222 L 0.486 0 L 0.057 0 L 0.057 -0.018000000000000002 Q 0.057 -0.034 0.059000000000000004 -0.0385 Q 0.061 -0.043000000000000003 0.07 -0.052000000000000005 L 0.271 -0.257 Q 0.379 -0.367 0.379 -0.465 Q 0.379 -0.525 0.34400000000000003 -0.5665 Q 0.309 -0.608 0.247 -0.608 Q 0.186 -0.608 0.14400000000000002 -0.5730000000000001 Q 0.155 -0.5700000000000001 0.166 -0.5645 Q 0.177 -0.559 0.189 -0.542 Q 0.201 -0.525 0.201 -0.501 Q 0.201 -0.466 0.1785 -0.4475 Q 0.156 -0.429 0.129 -0.429 Q 0.10400000000000001 -0.429 0.0805 -0.4465 Q 0.057 -0.464 0.057 -0.503 Q 0.057 -0.5700000000000001 0.11850000000000001 -0.6125 Q 0.18 -0.655 0.272 -0.655 Q 0.379 -0.655 0.448 -0.603 Q 0.517 -0.551 0.517 -0.466 Q 0.517 -0.431 0.507 -0.404 Q 0.497 -0.377 0.46900000000000003 -0.34750000000000003 Q 0.441 -0.318 0.417 -0.299 Q 0.393 -0.28 0.339 -0.24 Q 0.292 -0.20600000000000002 0.195 -0.125 L 0.342 -0.125 Q 0.433 -0.125 0.444 -0.131 Q 0.457 -0.138 0.47000000000000003 -0.222 L 0.517 -0.222 Z"/></g><g transform="translate(6.826230218518519,2.516780022222222)"><path fill="rgb(127,0,255)" stroke="none" paint-order="stroke fill markers" d=" M 0.47700000000000004 -0.22 L 0.47700000000000004 0.09 Q 0.47700000000000004 0.132 0.446 0.132 Q 0.41600000000000004 0.132 0.41600000000000004 0.09 L 0.41600000000000004 -0.22 L 0.107 -0.22 Q 0.064 -0.22 0.064 -0.25 Q 0.064 -0.281 0.107 -0.281 L 0.41600000000000004 -0.281 L 0.41600000000000004 -0.591 Q 0.41600000000000004 -0.633 0.447 -0.633 Q 0.47700000000000004 -0.633 0.47700000000000004 -0.591 L 0.47700000000000004 -0.281 L 0.786 -0.281 Q 0.8290000000000001 -0.281 0.8290000000000001 -0.25 Q 0.8290000000000001 -0.22 0.786 -0.22 L 0.47700000000000004 -0.22 Z"/></g><g transform="translate(7.942893107407408,2.516780022222222)"><path fill="rgb(127,0,255)" stroke="none" paint-order="stroke fill markers" d=" M 0.431 -0.396 Q 0.404 -0.41600000000000004 0.36 -0.41600000000000004 Q 0.268 -0.41600000000000004 0.217 -0.33 Q 0.196 -0.294 0.1785 -0.223 Q 0.161 -0.152 0.161 -0.121 Q 0.161 -0.028 0.26 -0.028 Q 0.396 -0.028 0.47100000000000003 -0.107 Q 0.481 -0.11800000000000001 0.486 -0.11800000000000001 Q 0.493 -0.11800000000000001 0.502 -0.108 Q 0.511 -0.098 0.511 -0.092 Q 0.511 -0.081 0.482 -0.0565 Q 0.453 -0.032 0.41300000000000003 -0.016 Q 0.35000000000000003 0.008 0.258 0.008 Q 0.149 0.008 0.0975 -0.041 Q 0.046 -0.09 0.046 -0.165 Q 0.046 -0.273 0.132 -0.3625 Q 0.218 -0.452 0.359 -0.452 Q 0.424 -0.452 0.4615 -0.426 Q 0.499 -0.4 0.499 -0.359 Q 0.499 -0.328 0.47850000000000004 -0.305 Q 0.458 -0.28200000000000003 0.427 -0.28200000000000003 Q 0.4 -0.28200000000000003 0.3885 -0.297 Q 0.377 -0.312 0.377 -0.328 Q 0.377 -0.334 0.3785 -0.3435 Q 0.38 -0.353 0.3935 -0.371 Q 0.40700000000000003 -0.389 0.431 -0.396 Z"/></g><g transform="translate(8.456316107407408,2.516780022222222)"><path fill="rgb(127,0,255)" stroke="none" paint-order="stroke fill markers" d=" M 0.536 -0.401 Q 0.516 -0.41600000000000004 0.488 -0.41600000000000004 Q 0.461 -0.41600000000000004 0.4375 -0.392 Q 0.41400000000000003 -0.368 0.403 -0.325 Q 0.4 -0.316 0.385 -0.257 Q 0.37 -0.198 0.368 -0.189 Q 0.34600000000000003 -0.099 0.34600000000000003 -0.078 Q 0.34600000000000003 -0.028 0.402 -0.028 Q 0.44 -0.028 0.482 -0.0575 Q 0.524 -0.08700000000000001 0.544 -0.149 Q 0.548 -0.162 0.5670000000000001 -0.162 Q 0.591 -0.162 0.591 -0.148 Q 0.591 -0.134 0.578 -0.1095 Q 0.5650000000000001 -0.085 0.542 -0.058 Q 0.519 -0.031 0.48 -0.0115 Q 0.441 0.008 0.397 0.008 Q 0.295 0.008 0.259 -0.053 Q 0.215 0.008 0.152 0.008 Q 0.105 0.008 0.07150000000000001 -0.0165 Q 0.038 -0.041 0.038 -0.08 Q 0.038 -0.115 0.06 -0.1365 Q 0.082 -0.158 0.11 -0.158 Q 0.133 -0.158 0.1465 -0.14400000000000002 Q 0.16 -0.13 0.16 -0.112 Q 0.16 -0.091 0.1455 -0.07050000000000001 Q 0.131 -0.05 0.106 -0.043000000000000003 Q 0.126 -0.028 0.154 -0.028 Q 0.181 -0.028 0.20450000000000002 -0.051500000000000004 Q 0.228 -0.075 0.23900000000000002 -0.11900000000000001 L 0.273 -0.256 Q 0.296 -0.34800000000000003 0.296 -0.366 Q 0.296 -0.41600000000000004 0.24 -0.41600000000000004 Q 0.202 -0.41600000000000004 0.16 -0.3865 Q 0.11800000000000001 -0.357 0.098 -0.295 Q 0.094 -0.28200000000000003 0.075 -0.28200000000000003 Q 0.051000000000000004 -0.28200000000000003 0.051000000000000004 -0.296 Q 0.051000000000000004 -0.31 0.064 -0.3345 Q 0.077 -0.359 0.1 -0.386 Q 0.123 -0.41300000000000003 0.162 -0.4325 Q 0.201 -0.452 0.245 -0.452 Q 0.34700000000000003 -0.452 0.383 -0.391 Q 0.427 -0.452 0.49 -0.452 Q 0.537 -0.452 0.5705 -0.4275 Q 0.604 -0.403 0.604 -0.364 Q 0.604 -0.329 0.582 -0.3075 Q 0.56 -0.28600000000000003 0.532 -0.28600000000000003 Q 0.509 -0.28600000000000003 0.4955 -0.3 Q 0.482 -0.314 0.482 -0.332 Q 0.482 -0.353 0.4965 -0.3735 Q 0.511 -0.394 0.536 -0.401 Z"/></g><g transform="translate(9.115343107407408,2.1038880222222223) scale(0.7,0.7)"><path fill="rgb(127,0,255)" stroke="none" paint-order="stroke fill markers" d=" M 0.517 -0.222 L 0.486 0 L 0.057 0 L 0.057 -0.018000000000000002 Q 0.057 -0.034 0.059000000000000004 -0.0385 Q 0.061 -0.043000000000000003 0.07 -0.052000000000000005 L 0.271 -0.257 Q 0.379 -0.367 0.379 -0.465 Q 0.379 -0.525 0.34400000000000003 -0.5665 Q 0.309 -0.608 0.247 -0.608 Q 0.186 -0.608 0.14400000000000002 -0.5730000000000001 Q 0.155 -0.5700000000000001 0.166 -0.5645 Q 0.177 -0.559 0.189 -0.542 Q 0.201 -0.525 0.201 -0.501 Q 0.201 -0.466 0.1785 -0.4475 Q 0.156 -0.429 0.129 -0.429 Q 0.10400000000000001 -0.429 0.0805 -0.4465 Q 0.057 -0.464 0.057 -0.503 Q 0.057 -0.5700000000000001 0.11850000000000001 -0.6125 Q 0.18 -0.655 0.272 -0.655 Q 0.379 -0.655 0.448 -0.603 Q 0.517 -0.551 0.517 -0.466 Q 0.517 -0.431 0.507 -0.404 Q 0.497 -0.377 0.46900000000000003 -0.34750000000000003 Q 0.441 -0.318 0.417 -0.299 Q 0.393 -0.28 0.339 -0.24 Q 0.292 -0.20600000000000002 0.195 -0.125 L 0.342 -0.125 Q 0.433 -0.125 0.444 -0.131 Q 0.457 -0.138 0.47000000000000003 -0.222 L 0.517 -0.222 Z"/></g><g transform="translate(9.115343107407408,2.763997022222222) scale(0.7,0.7)"><path fill="rgb(127,0,255)" stroke="none" paint-order="stroke fill markers" d=" M 0.517 -0.222 L 0.486 0 L 0.057 0 L 0.057 -0.018000000000000002 Q 0.057 -0.034 0.059000000000000004 -0.0385 Q 0.061 -0.043000000000000003 0.07 -0.052000000000000005 L 0.271 -0.257 Q 0.379 -0.367 0.379 -0.465 Q 0.379 -0.525 0.34400000000000003 -0.5665 Q 0.309 -0.608 0.247 -0.608 Q 0.186 -0.608 0.14400000000000002 -0.5730000000000001 Q 0.155 -0.5700000000000001 0.166 -0.5645 Q 0.177 -0.559 0.189 -0.542 Q 0.201 -0.525 0.201 -0.501 Q 0.201 -0.466 0.1785 -0.4475 Q 0.156 -0.429 0.129 -0.429 Q 0.10400000000000001 -0.429 0.0805 -0.4465 Q 0.057 -0.464 0.057 -0.503 Q 0.057 -0.5700000000000001 0.11850000000000001 -0.6125 Q 0.18 -0.655 0.272 -0.655 Q 0.379 -0.655 0.448 -0.603 Q 0.517 -0.551 0.517 -0.466 Q 0.517 -0.431 0.507 -0.404 Q 0.497 -0.377 0.46900000000000003 -0.34750000000000003 Q 0.441 -0.318 0.417 -0.299 Q 0.393 -0.28 0.339 -0.24 Q 0.292 -0.20600000000000002 0.195 -0.125 L 0.342 -0.125 Q 0.433 -0.125 0.444 -0.131 Q 0.457 -0.138 0.47000000000000003 -0.222 L 0.517 -0.222 Z"/></g><g transform="translate(9.81413813703704,2.516780022222222)"><path fill="rgb(127,0,255)" stroke="none" paint-order="stroke fill markers" d=" M 0.788 -0.332 L 0.105 -0.332 Q 0.064 -0.332 0.064 -0.362 Q 0.064 -0.393 0.11 -0.393 L 0.783 -0.393 Q 0.8290000000000001 -0.393 0.8290000000000001 -0.362 Q 0.8290000000000001 -0.332 0.788 -0.332 M 0.783 -0.108 L 0.11 -0.108 Q 0.064 -0.108 0.064 -0.139 Q 0.064 -0.169 0.105 -0.169 L 0.788 -0.169 Q 0.8290000000000001 -0.169 0.8290000000000001 -0.139 Q 0.8290000000000001 -0.108 0.783 -0.108 Z"/></g><g transform="translate(10.98635674814815,2.516780022222222)"><path fill="rgb(127,0,255)" stroke="none" paint-order="stroke fill markers" d=" M 0.354 -0.623 L 0.354 -0.047 L 0.494 -0.047 L 0.494 0 Q 0.45 -0.003 0.295 -0.003 Q 0.14 -0.003 0.096 0 L 0.096 -0.047 L 0.23500000000000001 -0.047 L 0.23500000000000001 -0.5640000000000001 Q 0.17300000000000001 -0.544 0.105 -0.544 L 0.085 -0.544 L 0.085 -0.591 L 0.105 -0.591 Q 0.229 -0.591 0.306 -0.648 Q 0.315 -0.655 0.328 -0.655 Q 0.34600000000000003 -0.655 0.35000000000000003 -0.6485 Q 0.354 -0.642 0.354 -0.623 Z"/></g></g></g><g transform="scale(27,27) translate(16.40740740740741,1.1111111111111112) scale(0.1,0.1)"><text fill="rgb(0,153,204)" stroke="none" font-family="Serif" font-size="10px" font-style="normal" font-weight="bold" text-decoration="normal" x="0" y="0" text-anchor="start" dominant-baseline="alphabetic">标准型</text><g transform="scale(10,10) translate(-16.40740740740741,-1.1111111111111112)"><g transform="translate(16.40740740740741,2.4056689111111114)"><path fill="rgb(0,153,204)" stroke="none" paint-order="stroke fill markers" d=" M 0.359 -0.638 L 0.615 -0.061 Q 0.63 -0.027 0.639 -0.018000000000000002 Q 0.644 -0.01 0.644 -0.006 Q 0.644 0.004 0.637 0.006 Q 0.63 0.008 0.614 0.008 L 0.5640000000000001 0.008 Q 0.515 0.008 0.501 -0.02 Q 0.499 -0.024 0.493 -0.0375 Q 0.487 -0.051000000000000004 0.486 -0.055 L 0.39 -0.271 Q 0.368 -0.25 0.3035 -0.1805 Q 0.23900000000000002 -0.111 0.226 -0.098 Q 0.177 -0.049 0.171 -0.04 Q 0.153 -0.02 0.1445 -0.012 Q 0.136 -0.004 0.122 0.004 Q 0.108 0.012 0.095 0.012 Q 0.076 0.012 0.0615 -0.002 Q 0.047 -0.016 0.047 -0.036000000000000004 Q 0.047 -0.065 0.079 -0.089 L 0.368 -0.322 Q 0.23700000000000002 -0.619 0.229 -0.631 Q 0.213 -0.655 0.186 -0.658 Q 0.184 -0.658 0.1815 -0.659 Q 0.179 -0.66 0.17500000000000002 -0.664 Q 0.171 -0.668 0.171 -0.675 Q 0.171 -0.6880000000000001 0.1805 -0.6910000000000001 Q 0.19 -0.6940000000000001 0.211 -0.6940000000000001 Q 0.255 -0.6940000000000001 0.28400000000000003 -0.6895 Q 0.313 -0.685 0.3275 -0.6755 Q 0.342 -0.666 0.34750000000000003 -0.659 Q 0.353 -0.652 0.359 -0.638 Z"/></g><g transform="translate(17.078237407407407,2.4056689111111114)"><path fill="rgb(0,153,204)" stroke="none" paint-order="stroke fill markers" d=" M 0.577 -0.377 L 0.483 0.001 Q 0.461 0.09 0.3785 0.146 Q 0.296 0.202 0.20500000000000002 0.202 Q 0.145 0.202 0.108 0.178 Q 0.07100000000000001 0.154 0.07100000000000001 0.115 Q 0.07100000000000001 0.083 0.0925 0.061 Q 0.114 0.039 0.14300000000000002 0.039 Q 0.162 0.039 0.177 0.05 Q 0.192 0.061 0.192 0.085 Q 0.192 0.132 0.14400000000000002 0.152 Q 0.167 0.166 0.20500000000000002 0.166 Q 0.26 0.166 0.3085 0.116 Q 0.357 0.066 0.377 -0.022 Q 0.334 0.008 0.281 0.008 Q 0.254 0.008 0.2305 0.0035 Q 0.20700000000000002 -0.001 0.1805 -0.0135 Q 0.154 -0.026000000000000002 0.138 -0.054 Q 0.122 -0.082 0.122 -0.122 Q 0.122 -0.157 0.1355 -0.2005 Q 0.149 -0.244 0.182 -0.33 Q 0.199 -0.375 0.199 -0.395 Q 0.199 -0.405 0.196 -0.41000000000000003 Q 0.193 -0.41500000000000004 0.19 -0.41550000000000004 Q 0.187 -0.41600000000000004 0.182 -0.41600000000000004 Q 0.17400000000000002 -0.41600000000000004 0.1635 -0.41200000000000003 Q 0.153 -0.40800000000000003 0.1375 -0.3975 Q 0.122 -0.387 0.106 -0.3605 Q 0.09 -0.334 0.079 -0.295 Q 0.075 -0.28200000000000003 0.056 -0.28200000000000003 Q 0.032 -0.28200000000000003 0.032 -0.296 Q 0.032 -0.306 0.042 -0.3295 Q 0.052000000000000005 -0.353 0.07 -0.3815 Q 0.088 -0.41000000000000003 0.11950000000000001 -0.431 Q 0.151 -0.452 0.188 -0.452 Q 0.233 -0.452 0.267 -0.4275 Q 0.301 -0.403 0.301 -0.362 Q 0.301 -0.34600000000000003 0.28800000000000003 -0.312 Q 0.229 -0.16 0.229 -0.101 Q 0.229 -0.028 0.289 -0.028 Q 0.319 -0.028 0.357 -0.052000000000000005 Q 0.36 -0.054 0.3675 -0.06 Q 0.375 -0.066 0.3845 -0.078 Q 0.394 -0.09 0.396 -0.1 Q 0.403 -0.127 0.438 -0.266 L 0.464 -0.37 Q 0.468 -0.385 0.47100000000000003 -0.394 Q 0.47400000000000003 -0.403 0.482 -0.4165 Q 0.49 -0.43 0.5035000000000001 -0.437 Q 0.517 -0.444 0.535 -0.444 Q 0.557 -0.444 0.5695 -0.431 Q 0.582 -0.418 0.582 -0.4 Q 0.582 -0.395 0.577 -0.377 Z"/></g><g transform="translate(17.705551407407405,1.9927769111111113) scale(0.7,0.7)"><path fill="rgb(0,153,204)" stroke="none" paint-order="stroke fill markers" d=" M 0.517 -0.222 L 0.486 0 L 0.057 0 L 0.057 -0.018000000000000002 Q 0.057 -0.034 0.059000000000000004 -0.0385 Q 0.061 -0.043000000000000003 0.07 -0.052000000000000005 L 0.271 -0.257 Q 0.379 -0.367 0.379 -0.465 Q 0.379 -0.525 0.34400000000000003 -0.5665 Q 0.309 -0.608 0.247 -0.608 Q 0.186 -0.608 0.14400000000000002 -0.5730000000000001 Q 0.155 -0.5700000000000001 0.166 -0.5645 Q 0.177 -0.559 0.189 -0.542 Q 0.201 -0.525 0.201 -0.501 Q 0.201 -0.466 0.1785 -0.4475 Q 0.156 -0.429 0.129 -0.429 Q 0.10400000000000001 -0.429 0.0805 -0.4465 Q 0.057 -0.464 0.057 -0.503 Q 0.057 -0.5700000000000001 0.11850000000000001 -0.6125 Q 0.18 -0.655 0.272 -0.655 Q 0.379 -0.655 0.448 -0.603 Q 0.517 -0.551 0.517 -0.466 Q 0.517 -0.431 0.507 -0.404 Q 0.497 -0.377 0.46900000000000003 -0.34750000000000003 Q 0.441 -0.318 0.417 -0.299 Q 0.393 -0.28 0.339 -0.24 Q 0.292 -0.20600000000000002 0.195 -0.125 L 0.342 -0.125 Q 0.433 -0.125 0.444 -0.131 Q 0.457 -0.138 0.47000000000000003 -0.222 L 0.517 -0.222 Z"/></g><g transform="translate(17.668513407407406,2.6528859111111114) scale(0.7,0.7)"><path fill="rgb(0,153,204)" stroke="none" paint-order="stroke fill markers" d=" M 0.354 -0.623 L 0.354 -0.047 L 0.494 -0.047 L 0.494 0 Q 0.45 -0.003 0.295 -0.003 Q 0.14 -0.003 0.096 0 L 0.096 -0.047 L 0.23500000000000001 -0.047 L 0.23500000000000001 -0.5640000000000001 Q 0.17300000000000001 -0.544 0.105 -0.544 L 0.085 -0.544 L 0.085 -0.591 L 0.105 -0.591 Q 0.229 -0.591 0.306 -0.648 Q 0.315 -0.655 0.328 -0.655 Q 0.34600000000000003 -0.655 0.35000000000000003 -0.6485 Q 0.354 -0.642 0.354 -0.623 Z"/></g><g transform="translate(18.348790714814815,2.4056689111111114)"><path fill="rgb(0,153,204)" stroke="none" paint-order="stroke fill markers" d=" M 0.47700000000000004 -0.22 L 0.47700000000000004 0.09 Q 0.47700000000000004 0.132 0.446 0.132 Q 0.41600000000000004 0.132 0.41600000000000004 0.09 L 0.41600000000000004 -0.22 L 0.107 -0.22 Q 0.064 -0.22 0.064 -0.25 Q 0.064 -0.281 0.107 -0.281 L 0.41600000000000004 -0.281 L 0.41600000000000004 -0.591 Q 0.41600000000000004 -0.633 0.447 -0.633 Q 0.47700000000000004 -0.633 0.47700000000000004 -0.591 L 0.47700000000000004 -0.281 L 0.786 -0.281 Q 0.8290000000000001 -0.281 0.8290000000000001 -0.25 Q 0.8290000000000001 -0.22 0.786 -0.22 L 0.47700000000000004 -0.22 Z"/></g><g transform="translate(19.465453603703704,2.4056689111111114)"><path fill="rgb(0,153,204)" stroke="none" paint-order="stroke fill markers" d=" M 0.359 -0.638 L 0.615 -0.061 Q 0.63 -0.027 0.639 -0.018000000000000002 Q 0.644 -0.01 0.644 -0.006 Q 0.644 0.004 0.637 0.006 Q 0.63 0.008 0.614 0.008 L 0.5640000000000001 0.008 Q 0.515 0.008 0.501 -0.02 Q 0.499 -0.024 0.493 -0.0375 Q 0.487 -0.051000000000000004 0.486 -0.055 L 0.39 -0.271 Q 0.368 -0.25 0.3035 -0.1805 Q 0.23900000000000002 -0.111 0.226 -0.098 Q 0.177 -0.049 0.171 -0.04 Q 0.153 -0.02 0.1445 -0.012 Q 0.136 -0.004 0.122 0.004 Q 0.108 0.012 0.095 0.012 Q 0.076 0.012 0.0615 -0.002 Q 0.047 -0.016 0.047 -0.036000000000000004 Q 0.047 -0.065 0.079 -0.089 L 0.368 -0.322 Q 0.23700000000000002 -0.619 0.229 -0.631 Q 0.213 -0.655 0.186 -0.658 Q 0.184 -0.658 0.1815 -0.659 Q 0.179 -0.66 0.17500000000000002 -0.664 Q 0.171 -0.668 0.171 -0.675 Q 0.171 -0.6880000000000001 0.1805 -0.6910000000000001 Q 0.19 -0.6940000000000001 0.211 -0.6940000000000001 Q 0.255 -0.6940000000000001 0.28400000000000003 -0.6895 Q 0.313 -0.685 0.3275 -0.6755 Q 0.342 -0.666 0.34750000000000003 -0.659 Q 0.353 -0.652 0.359 -0.638 Z"/></g><g transform="translate(20.136283603703703,2.4056689111111114)"><path fill="rgb(0,153,204)" stroke="none" paint-order="stroke fill markers" d=" M 0.577 -0.377 L 0.483 0.001 Q 0.461 0.09 0.3785 0.146 Q 0.296 0.202 0.20500000000000002 0.202 Q 0.145 0.202 0.108 0.178 Q 0.07100000000000001 0.154 0.07100000000000001 0.115 Q 0.07100000000000001 0.083 0.0925 0.061 Q 0.114 0.039 0.14300000000000002 0.039 Q 0.162 0.039 0.177 0.05 Q 0.192 0.061 0.192 0.085 Q 0.192 0.132 0.14400000000000002 0.152 Q 0.167 0.166 0.20500000000000002 0.166 Q 0.26 0.166 0.3085 0.116 Q 0.357 0.066 0.377 -0.022 Q 0.334 0.008 0.281 0.008 Q 0.254 0.008 0.2305 0.0035 Q 0.20700000000000002 -0.001 0.1805 -0.0135 Q 0.154 -0.026000000000000002 0.138 -0.054 Q 0.122 -0.082 0.122 -0.122 Q 0.122 -0.157 0.1355 -0.2005 Q 0.149 -0.244 0.182 -0.33 Q 0.199 -0.375 0.199 -0.395 Q 0.199 -0.405 0.196 -0.41000000000000003 Q 0.193 -0.41500000000000004 0.19 -0.41550000000000004 Q 0.187 -0.41600000000000004 0.182 -0.41600000000000004 Q 0.17400000000000002 -0.41600000000000004 0.1635 -0.41200000000000003 Q 0.153 -0.40800000000000003 0.1375 -0.3975 Q 0.122 -0.387 0.106 -0.3605 Q 0.09 -0.334 0.079 -0.295 Q 0.075 -0.28200000000000003 0.056 -0.28200000000000003 Q 0.032 -0.28200000000000003 0.032 -0.296 Q 0.032 -0.306 0.042 -0.3295 Q 0.052000000000000005 -0.353 0.07 -0.3815 Q 0.088 -0.41000000000000003 0.11950000000000001 -0.431 Q 0.151 -0.452 0.188 -0.452 Q 0.233 -0.452 0.267 -0.4275 Q 0.301 -0.403 0.301 -0.362 Q 0.301 -0.34600000000000003 0.28800000000000003 -0.312 Q 0.229 -0.16 0.229 -0.101 Q 0.229 -0.028 0.289 -0.028 Q 0.319 -0.028 0.357 -0.052000000000000005 Q 0.36 -0.054 0.3675 -0.06 Q 0.375 -0.066 0.3845 -0.078 Q 0.394 -0.09 0.396 -0.1 Q 0.403 -0.127 0.438 -0.266 L 0.464 -0.37 Q 0.468 -0.385 0.47100000000000003 -0.394 Q 0.47400000000000003 -0.403 0.482 -0.4165 Q 0.49 -0.43 0.5035000000000001 -0.437 Q 0.517 -0.444 0.535 -0.444 Q 0.557 -0.444 0.5695 -0.431 Q 0.582 -0.418 0.582 -0.4 Q 0.582 -0.395 0.577 -0.377 Z"/></g><g transform="translate(20.7635976037037,1.9927769111111113) scale(0.7,0.7)"><path fill="rgb(0,153,204)" stroke="none" paint-order="stroke fill markers" d=" M 0.517 -0.222 L 0.486 0 L 0.057 0 L 0.057 -0.018000000000000002 Q 0.057 -0.034 0.059000000000000004 -0.0385 Q 0.061 -0.043000000000000003 0.07 -0.052000000000000005 L 0.271 -0.257 Q 0.379 -0.367 0.379 -0.465 Q 0.379 -0.525 0.34400000000000003 -0.5665 Q 0.309 -0.608 0.247 -0.608 Q 0.186 -0.608 0.14400000000000002 -0.5730000000000001 Q 0.155 -0.5700000000000001 0.166 -0.5645 Q 0.177 -0.559 0.189 -0.542 Q 0.201 -0.525 0.201 -0.501 Q 0.201 -0.466 0.1785 -0.4475 Q 0.156 -0.429 0.129 -0.429 Q 0.10400000000000001 -0.429 0.0805 -0.4465 Q 0.057 -0.464 0.057 -0.503 Q 0.057 -0.5700000000000001 0.11850000000000001 -0.6125 Q 0.18 -0.655 0.272 -0.655 Q 0.379 -0.655 0.448 -0.603 Q 0.517 -0.551 0.517 -0.466 Q 0.517 -0.431 0.507 -0.404 Q 0.497 -0.377 0.46900000000000003 -0.34750000000000003 Q 0.441 -0.318 0.417 -0.299 Q 0.393 -0.28 0.339 -0.24 Q 0.292 -0.20600000000000002 0.195 -0.125 L 0.342 -0.125 Q 0.433 -0.125 0.444 -0.131 Q 0.457 -0.138 0.47000000000000003 -0.222 L 0.517 -0.222 Z"/></g><g transform="translate(20.726559603703702,2.6528859111111114) scale(0.7,0.7)"><path fill="rgb(0,153,204)" stroke="none" paint-order="stroke fill markers" d=" M 0.517 -0.222 L 0.486 0 L 0.057 0 L 0.057 -0.018000000000000002 Q 0.057 -0.034 0.059000000000000004 -0.0385 Q 0.061 -0.043000000000000003 0.07 -0.052000000000000005 L 0.271 -0.257 Q 0.379 -0.367 0.379 -0.465 Q 0.379 -0.525 0.34400000000000003 -0.5665 Q 0.309 -0.608 0.247 -0.608 Q 0.186 -0.608 0.14400000000000002 -0.5730000000000001 Q 0.155 -0.5700000000000001 0.166 -0.5645 Q 0.177 -0.559 0.189 -0.542 Q 0.201 -0.525 0.201 -0.501 Q 0.201 -0.466 0.1785 -0.4475 Q 0.156 -0.429 0.129 -0.429 Q 0.10400000000000001 -0.429 0.0805 -0.4465 Q 0.057 -0.464 0.057 -0.503 Q 0.057 -0.5700000000000001 0.11850000000000001 -0.6125 Q 0.18 -0.655 0.272 -0.655 Q 0.379 -0.655 0.448 -0.603 Q 0.517 -0.551 0.517 -0.466 Q 0.517 -0.431 0.507 -0.404 Q 0.497 -0.377 0.46900000000000003 -0.34750000000000003 Q 0.441 -0.318 0.417 -0.299 Q 0.393 -0.28 0.339 -0.24 Q 0.292 -0.20600000000000002 0.195 -0.125 L 0.342 -0.125 Q 0.433 -0.125 0.444 -0.131 Q 0.457 -0.138 0.47000000000000003 -0.222 L 0.517 -0.222 Z"/></g><g transform="translate(21.46239263333333,2.4056689111111114)"><path fill="rgb(0,153,204)" stroke="none" paint-order="stroke fill markers" d=" M 0.788 -0.332 L 0.105 -0.332 Q 0.064 -0.332 0.064 -0.362 Q 0.064 -0.393 0.11 -0.393 L 0.783 -0.393 Q 0.8290000000000001 -0.393 0.8290000000000001 -0.362 Q 0.8290000000000001 -0.332 0.788 -0.332 M 0.783 -0.108 L 0.11 -0.108 Q 0.064 -0.108 0.064 -0.139 Q 0.064 -0.169 0.105 -0.169 L 0.788 -0.169 Q 0.8290000000000001 -0.169 0.8290000000000001 -0.139 Q 0.8290000000000001 -0.108 0.783 -0.108 Z"/></g><g transform="translate(22.63461124444444,2.4056689111111114)"><path fill="rgb(0,153,204)" stroke="none" paint-order="stroke fill markers" d=" M 0.354 -0.623 L 0.354 -0.047 L 0.494 -0.047 L 0.494 0 Q 0.45 -0.003 0.295 -0.003 Q 0.14 -0.003 0.096 0 L 0.096 -0.047 L 0.23500000000000001 -0.047 L 0.23500000000000001 -0.5640000000000001 Q 0.17300000000000001 -0.544 0.105 -0.544 L 0.085 -0.544 L 0.085 -0.591 L 0.105 -0.591 Q 0.229 -0.591 0.306 -0.648 Q 0.315 -0.655 0.328 -0.655 Q 0.34600000000000003 -0.655 0.35000000000000003 -0.6485 Q 0.354 -0.642 0.354 -0.623 Z"/></g></g></g><g transform="scale(27,27)"><g transform="translate(12.870371203703705,6.99650462962963)"><path fill="rgb(0,0,0)" stroke="none" paint-order="stroke fill markers" d=" M 0.687 -0.327 L 0.09 -0.327 Q 0.058 -0.327 0.056 -0.34700000000000003 Q 0.056 -0.367 0.089 -0.367 L 0.6880000000000001 -0.367 Q 0.72 -0.367 0.721 -0.34700000000000003 Q 0.721 -0.327 0.687 -0.327 M 0.6880000000000001 -0.133 L 0.089 -0.133 Q 0.057 -0.133 0.056 -0.153 Q 0.056 -0.17300000000000001 0.09 -0.17300000000000001 L 0.687 -0.17300000000000001 Q 0.719 -0.17300000000000001 0.721 -0.153 Q 0.721 -0.133 0.6880000000000001 -0.133 Z"/></g><g transform="translate(13.503707331224133,6.99650462962963)"><path fill="rgb(0,0,0)" stroke="none" paint-order="stroke fill markers" d=" M 0.706 -0.327 L 0.09 -0.327 Q 0.058 -0.327 0.056 -0.34700000000000003 Q 0.056 -0.367 0.089 -0.367 L 0.679 -0.367 Q 0.599 -0.455 0.579 -0.513 Q 0.579 -0.525 0.599 -0.525 Q 0.61 -0.525 0.614 -0.522 L 0.627 -0.5 Q 0.724 -0.32 0.926 -0.263 Q 0.9410000000000001 -0.259 0.9420000000000001 -0.25 Q 0.9420000000000001 -0.241 0.925 -0.23700000000000002 Q 0.721 -0.179 0.624 0.006 Q 0.614 0.023 0.609 0.024 L 0.608 0.025 L 0.599 0.025 Q 0.579 0.025 0.579 0.013000000000000001 Q 0.579 0 0.611 -0.047 Q 0.638 -0.088 0.679 -0.133 L 0.089 -0.133 Q 0.057 -0.133 0.056 -0.153 Q 0.056 -0.17300000000000001 0.09 -0.17300000000000001 L 0.706 -0.17300000000000001 Q 0.723 -0.17300000000000001 0.733 -0.18 L 0.734 -0.181 L 0.736 -0.183 Q 0.795 -0.226 0.851 -0.25 Q 0.79 -0.277 0.737 -0.317 Q 0.724 -0.327 0.706 -0.327 Z"/></g></g></g></g></svg>