<svg version="1.1" xmlns="http://www.w3.org/2000/svg" xmlns:xlink="http://www.w3.org/1999/xlink" width="676" height="305"><defs><clipPath id="bLVmAtKwHVRL"><path fill="none" stroke="none" d=" M 0 0 L 676 0 L 676 305 L 0 305 L 0 0 Z"/></clipPath></defs><g transform="scale(1,1)" clip-path="url(#bLVmAtKwHVRL)"><g><path fill="none" stroke="rgb(127,0,255)" paint-order="fill stroke markers" d=" M 193.24897841441745 207.19941331965742 L 195.10693449735174 203.3900335566798 L 196.86695154043613 199.58982162261105 L 198.524793805537 195.80792328264033 L 200.0764714530505 192.05344022761727 L 201.51825014403454 188.33540816950324 L 202.846660027441 184.66277509561036 L 204.05850409081916 181.04437973396293 L 205.15086585439315 177.48893028160728 L 206.1211163899967 174.00498344706318 L 206.96692064797273 170.600923857355 L 207.6862430768116 167.2849438791817 L 208.277352522003 164.06502390278956 L 208.73882639231246 160.94891313599726 L 209.0695540834547 157.94411095459526 L 209.26873965092523 155.0578488540022 L 209.3359037255571 152.29707304561487 L 209.27088466719277 149.66842773973562 L 209.07383895369475 147.1782391553098 L 208.7452408043588 144.83250029495542 L 208.28588103863598 142.63685652192703 L 207.69686517291 140.5965919737243 L 206.97961075991054 138.716616845043 L 206.13584397716565 137.0014555706744 L 205.16759547270317 135.45523593679178 L 204.0771954779998 134.08167914683008 L 202.86726819993837 132.88409086586614 L 201.5407255052709 131.86535326505282 L 200.1007599127856 131.027918085253 L 198.55083691004427 130.3738007365671 L 196.89468661317994 129.90457544795424 L 195.1362947898277 129.62137147862018 L 193.2798932667925 129.52487040029018 L 191.32994974553975 129.615304456907 L 189.29115705001897 129.89245600570197 L 187.16842183269756 130.35565804098405 L 184.96685276598464 131.00379579938652 L 182.69174824746472 131.83530944270785 L 180.34858364852983 132.84819781189026 L 177.9429981370983 134.04002324310125 L 175.48078110613343 135.40791743432783 L 172.96785824062357 136.94858834836418 L 170.41027725655545 138.65832813558035 L 167.81419334620213 140.53302205740388 L 165.18585436475374 142.5681583890394 L 162.531585793941 144.75883927759338 L 159.8577755188396 147.0997925294727 L 157.17085845449125 149.58538429868878 L 154.47730105934096 152.20963264553086 L 151.78358577275972 154.966221932978 L 149.09619541410743 157.848518026202 L 146.4215975808808 160.84958425858218 L 143.76622908349546 163.962198125807 L 141.13648045416087 167.17886866788578 L 138.5386805671315 170.49185449723814 L 135.97908140734592 173.89318242947434 L 133.46384302411192 177.37466667202816 L 130.9990187060479 180.92792852446271 L 128.59054041295954 184.54441654303693 L 126.24420449971174 188.21542712100432 L 123.96565776645409 191.932125435114 L 121.76038386877121 195.68556670790363 L 119.63369012046459 199.46671773461298 L 117.59069472072646 203.26647862291102 L 115.6363144364459 207.07570469311605 L 113.77525276929083 210.88522848620332 L 112.01198863604424 214.68588182663456 L 110.35076558943666 218.4685178869116 L 108.79558160541647 222.22403320075315 L 107.35017946143681 225.9433895719162 L 106.01803772891478 229.61763582593585 L 104.80236240154122 233.23792935243407 L 103.70607917958847 236.7955573861536 L 102.7318264287853 240.28195797550026 L 101.8819488307043 243.68874058813037 L 101.1584917399432 247.0077063039925 L 100.56319626168019 250.23086754722638 L 100.09749506144993 253.35046730943114 L 99.76250891722472 256.35899781803926 L 99.55904402209845 259.2492186048679 L 99.48759004406526 262.01417393136364 L 99.548318947562 264.64720952860307 L 99.74108457961049 267.1419886117635 L 100.06542302155628 269.4925071305209 L 100.52055370555648 271.69310821867464 L 101.10538129313038 273.738495808222 L 101.81849831125146 275.62374737511965 L 102.65818853963694 277.3443257860571 L 103.62243114108253 278.8960902177303 L 104.70890552490246 280.2753061223387 L 105.91499693176986 281.4786542153191 L 107.2378027265172 282.5032384636897 L 108.6741393837518 283.346593055776 L 110.22055014947475 284.0066883355473 L 111.8733133602644 284.48193568727993 L 113.6284514000032 284.7711913587935 L 115.48174027259178 284.8737592140573 L 117.42871976761278 284.78939240854373 L 119.4647041944788 284.5182939832952 L 121.58479365923122 284.0611163762767 L 123.78388585685097 283.4189598521882 L 126.05668835070087 282.59336985451705 L 128.39773130954762 281.5863332862024 L 130.8013806715096 280.4002737278631 L 133.2618517032501 279.0380456050968 L 135.77322292178303 277.5029273188876 L 138.32945034538676 275.7986133556557 L 140.92438203932917 273.92920539593524 L 143.55177292139734 271.89920244308166 L 146.2052997916001 269.7134899957626 L 148.87857654987286 267.37732829029136 L 151.56516956515978 264.8963396411002 L 154.2586131588875 262.27649490981906 L 156.95242516556465 259.52409913552475 L 159.6401225330604 256.64577636074335 L 162.31523692501628 253.64845368972428 L 164.9713302878427 250.5393446173518 L 167.60201034483558 247.32593166881574 L 170.20094598012383 244.0159483918217 L 172.7618824754246 240.6173607446786 L 175.2786565629369 237.1383479250562 L 177.74521125814562 233.5872826855511 L 180.1556104368398 229.9727111834343 L 182.5040531212625 226.30333241307568 L 184.78488744101168 222.5879772705426 L 186.99262423509157 218.83558730075885 L 189.12195026238075 215.0551931783702 L 191.167740988723 211.25589297410707 L 193.12507291986748 207.4468302589477" stroke-opacity="0.6980392156862745" stroke-linecap="round" stroke-linejoin="round" stroke-miterlimit="10" stroke-width="2.5"/><path fill="none" stroke="rgb(0,153,204)" paint-order="fill stroke markers" d=" M 580.5305263505273 186.2415703095662 L 580.0390779826571 182.03183712486037 L 579.4701218959273 177.88267338897825 L 578.825027366279 173.8040646705982 L 578.105346907939 169.8058267374417 L 577.312812537068 165.89758193319418 L 576.4493316034101 162.08873601992946 L 575.5169821999775 158.38845554176902 L 574.5180081618157 154.80564576425454 L 573.4548136658868 151.34892924252543 L 572.3299574450665 148.0266250698801 L 571.1461466301795 144.84672885666282 L 569.9062302348939 141.81689348765917 L 568.6131922991532 138.94441070431083 L 567.2701447076487 136.23619355607462 L 565.8803197006142 133.69875976315905 L 564.4470620949674 131.3382160306784 L 562.9738212345198 129.16024335197488 L 561.4641426886267 127.170083336478 L 559.9216597192562 125.37252559500597 L 558.3500845370146 123.77189621286736 L 556.7531993671679 122.37204733850498 L 555.1348473471651 121.17634791273778 L 553.498923277566 120.18767556091261 L 551.8493642486347 119.40840966747848 L 550.1901401651576 118.84042564965026 L 548.5252441922859 118.48509044394321 L 546.8586831454018 118.3432592164405 L 545.194467847131 118.4152733047111 L 543.5366034747128 118.7009593963311 L 541.8890799209555 119.19962994598541 L 540.2558621919766 119.91008483014588 L 538.6408808648363 120.83061423534397 L 537.0480226280297 121.95900277308672 L 535.4811209276031 123.29253481151267 L 533.9439467414059 124.8280010109567 L 532.4401995036818 126.56170604769484 L 530.9734982018394 128.48947750728064 L 529.5473726668313 130.60667592606995 L 528.1652550780984 132.90820595676826 L 526.8304717035309 135.38852863112794 L 525.5462348943167 138.04167469028482 L 524.3156353539508 140.86125895065155 L 523.141634700004 143.84049567079484 L 522.027058336559 146.97221488231327 L 520.974588654462 150.2488796454141 L 519.9867585757572 153.6626041876595 L 519.0659454578406 157.20517288223039 L 518.2143653720012 160.8680600200322 L 517.434067770122 164.64245032805965 L 516.7269305523754 168.51926018463877 L 516.0946555477807 172.48915948048972 L 515.5387644185051 176.54259407299762 L 515.0605949977609 180.66980877965264 L 514.6612980701144 184.8608708553217 L 514.3418346019552 189.10569389685088 L 514.1029734287891 193.39406211746788 L 513.945289404925 197.71565493256563 L 513.8691620200017 202.06007179769648 L 513.8747744856927 206.41685723900224 L 513.9621132947794 210.77552601583906 L 514.1309682536585 215.12558835504112 L 514.3809329882033 219.45657519609196 L 514.7114059217632 223.75806338644833 L 515.1215917229451 228.01970076637906 L 515.6105032196946 232.23123108295025 L 516.1769637750701 236.38251867319602 L 516.8196101189915 240.46357285707217 L 517.5368956291483 244.46457198148727 L 518.3270940531726 248.37588705754567 L 519.1883036631176 252.18810493411598 L 520.1184518322437 255.89205095195442 L 521.1153000230971 259.4788110238626 L 522.1764491748778 262.9397530877405 L 523.2993454771298 266.26654788090514 L 524.4812865158584 269.45118898567813 L 525.7194277772853 272.48601209799915 L 527.0107894935858 275.3637134726934 L 528.3522638141355 278.0773675010018 L 529.7406222850072 280.6204433780695 L 531.1725236187167 282.9868208202826 L 532.644521735519 285.1708047946242 L 534.1530740569028 287.1671392246035 L 535.6945500313238 288.97101963977195 L 537.2652398716565 290.578104738383 L 538.8613634833391 291.9845268353691 L 540.479079561724 293.1869011704907 L 542.1144948367375 294.18233405425644 L 543.763673442604 294.9684298320097 L 545.422646390081 295.54329664942105 L 547.0874211184127 295.9055510055126 L 548.7539911040096 296.054321082255 L 550.4183455027335 295.9892488427249 L 552.0764788025796 295.71049089277295 L 553.7244004635266 295.2187181041294 L 555.3581445213539 294.5151139998527 L 556.9737791323139 293.6013719060088 L 558.5674160356886 292.47969087643435 L 560.1352199114568 291.1527704003925 L 561.6734176105525 289.62380390585764 L 563.1783072354986 287.89647107406427 L 564.6462670495645 285.9749289838168 L 566.0737641930046 283.86380210687196 L 567.4573631854015 281.5681711784719 L 568.7937341936508 279.09356096981276 L 570.0796610456921 276.4459269918754 L 571.312048970696 273.63164116261845 L 572.487932047082 270.6574764720269 L 573.6044803404433 267.5305906819218 L 574.6590067141962 264.2585090997614 L 575.6489732965673 260.84910646788876 L 576.5719975883527 257.3105880118146 L 577.4258581967505 253.6514696931426 L 578.2085001814667 249.88055771466435 L 578.9180400002296 246.00692732694546 L 579.5527700418089 242.03990098740968 L 580.1111627356329 237.98902592448266 L 580.5918742281083 233.86405116079246 L 580.993747616802 229.67490405072203 L 581.3158157346946 225.43166638878108 L 581.5573034778097 221.1445501462941 L 581.7176296706149 216.82387289480005 L 581.7964084647051 212.48003297530877 L 581.7934502674037 208.12348447317478 L 581.7087621980447 203.76471205881305 L 581.5425480708391 199.41420575480828 L 581.2952079043658 195.08243569014294 L 580.9673369588694 190.7798269023026 L 580.5597243036785 186.51673424789976" stroke-opacity="0.6980392156862745" stroke-linecap="round" stroke-linejoin="round" stroke-miterlimit="10" stroke-width="2.5"/><g transform="scale(27,27) translate(0.7037037037037037,1.2222222222222223) scale(0.1,0.1)"><text fill="rgb(127,0,255)" stroke="none" font-family="Serif" font-size="10px" font-style="normal" font-weight="bold" text-decoration="normal" x="0" y="0" text-anchor="start" dominant-baseline="alphabetic">普通二次型</text><g transform="scale(10,10) translate(-0.7037037037037037,-1.2222222222222223)"><g transform="translate(0.7037037037037037,2.516780022222222)"><path fill="rgb(127,0,255)" stroke="none" paint-order="stroke fill markers" d=" M 0.515 -0.317 L 0.492 -0.228 Q 0.487 -0.20600000000000002 0.47000000000000003 -0.138 Q 0.456 -0.082 0.456 -0.065 Q 0.456 -0.028 0.47900000000000004 -0.028 Q 0.522 -0.028 0.547 -0.128 Q 0.554 -0.156 0.555 -0.157 Q 0.56 -0.162 0.5750000000000001 -0.162 Q 0.599 -0.162 0.599 -0.148 Q 0.599 -0.14 0.588 -0.1075 Q 0.577 -0.075 0.561 -0.049 Q 0.528 0.008 0.47400000000000003 0.008 Q 0.397 0.008 0.359 -0.046 Q 0.301 0.008 0.22 0.008 Q 0.148 0.008 0.0965 -0.032 Q 0.045 -0.07200000000000001 0.045 -0.157 Q 0.045 -0.268 0.1245 -0.36 Q 0.20400000000000001 -0.452 0.327 -0.452 Q 0.394 -0.452 0.433 -0.41000000000000003 Q 0.453 -0.435 0.484 -0.435 Q 0.502 -0.435 0.5165 -0.424 Q 0.531 -0.41300000000000003 0.531 -0.391 Q 0.531 -0.384 0.515 -0.317 M 0.34900000000000003 -0.093 L 0.41000000000000003 -0.34400000000000003 L 0.41200000000000003 -0.358 Q 0.41200000000000003 -0.372 0.3895 -0.394 Q 0.367 -0.41600000000000004 0.329 -0.41600000000000004 Q 0.25 -0.41600000000000004 0.20800000000000002 -0.318 Q 0.194 -0.28400000000000003 0.176 -0.212 Q 0.158 -0.14 0.158 -0.10400000000000001 Q 0.158 -0.028 0.225 -0.028 Q 0.259 -0.028 0.292 -0.0465 Q 0.325 -0.065 0.34900000000000003 -0.093 Z"/></g><g transform="translate(1.3365717037037037,2.516780022222222)"><path fill="rgb(127,0,255)" stroke="none" paint-order="stroke fill markers" d=" M 0.536 -0.401 Q 0.516 -0.41600000000000004 0.488 -0.41600000000000004 Q 0.461 -0.41600000000000004 0.4375 -0.392 Q 0.41400000000000003 -0.368 0.403 -0.325 Q 0.4 -0.316 0.385 -0.257 Q 0.37 -0.198 0.368 -0.189 Q 0.34600000000000003 -0.099 0.34600000000000003 -0.078 Q 0.34600000000000003 -0.028 0.402 -0.028 Q 0.44 -0.028 0.482 -0.0575 Q 0.524 -0.08700000000000001 0.544 -0.149 Q 0.548 -0.162 0.5670000000000001 -0.162 Q 0.591 -0.162 0.591 -0.148 Q 0.591 -0.134 0.578 -0.1095 Q 0.5650000000000001 -0.085 0.542 -0.058 Q 0.519 -0.031 0.48 -0.0115 Q 0.441 0.008 0.397 0.008 Q 0.295 0.008 0.259 -0.053 Q 0.215 0.008 0.152 0.008 Q 0.105 0.008 0.07150000000000001 -0.0165 Q 0.038 -0.041 0.038 -0.08 Q 0.038 -0.115 0.06 -0.1365 Q 0.082 -0.158 0.11 -0.158 Q 0.133 -0.158 0.1465 -0.14400000000000002 Q 0.16 -0.13 0.16 -0.112 Q 0.16 -0.091 0.1455 -0.07050000000000001 Q 0.131 -0.05 0.106 -0.043000000000000003 Q 0.126 -0.028 0.154 -0.028 Q 0.181 -0.028 0.20450000000000002 -0.051500000000000004 Q 0.228 -0.075 0.23900000000000002 -0.11900000000000001 L 0.273 -0.256 Q 0.296 -0.34800000000000003 0.296 -0.366 Q 0.296 -0.41600000000000004 0.24 -0.41600000000000004 Q 0.202 -0.41600000000000004 0.16 -0.3865 Q 0.11800000000000001 -0.357 0.098 -0.295 Q 0.094 -0.28200000000000003 0.075 -0.28200000000000003 Q 0.051000000000000004 -0.28200000000000003 0.051000000000000004 -0.296 Q 0.051000000000000004 -0.31 0.064 -0.3345 Q 0.077 -0.359 0.1 -0.386 Q 0.123 -0.41300000000000003 0.162 -0.4325 Q 0.201 -0.452 0.245 -0.452 Q 0.34700000000000003 -0.452 0.383 -0.391 Q 0.427 -0.452 0.49 -0.452 Q 0.537 -0.452 0.5705 -0.4275 Q 0.604 -0.403 0.604 -0.364 Q 0.604 -0.329 0.582 -0.3075 Q 0.56 -0.28600000000000003 0.532 -0.28600000000000003 Q 0.509 -0.28600000000000003 0.4955 -0.3 Q 0.482 -0.314 0.482 -0.332 Q 0.482 -0.353 0.4965 -0.3735 Q 0.511 -0.394 0.536 -0.401 Z"/></g><g transform="translate(1.9955987037037037,2.1038880222222223) scale(0.7,0.7)"><path fill="rgb(127,0,255)" stroke="none" paint-order="stroke fill markers" d=" M 0.517 -0.222 L 0.486 0 L 0.057 0 L 0.057 -0.018000000000000002 Q 0.057 -0.034 0.059000000000000004 -0.0385 Q 0.061 -0.043000000000000003 0.07 -0.052000000000000005 L 0.271 -0.257 Q 0.379 -0.367 0.379 -0.465 Q 0.379 -0.525 0.34400000000000003 -0.5665 Q 0.309 -0.608 0.247 -0.608 Q 0.186 -0.608 0.14400000000000002 -0.5730000000000001 Q 0.155 -0.5700000000000001 0.166 -0.5645 Q 0.177 -0.559 0.189 -0.542 Q 0.201 -0.525 0.201 -0.501 Q 0.201 -0.466 0.1785 -0.4475 Q 0.156 -0.429 0.129 -0.429 Q 0.10400000000000001 -0.429 0.0805 -0.4465 Q 0.057 -0.464 0.057 -0.503 Q 0.057 -0.5700000000000001 0.11850000000000001 -0.6125 Q 0.18 -0.655 0.272 -0.655 Q 0.379 -0.655 0.448 -0.603 Q 0.517 -0.551 0.517 -0.466 Q 0.517 -0.431 0.507 -0.404 Q 0.497 -0.377 0.46900000000000003 -0.34750000000000003 Q 0.441 -0.318 0.417 -0.299 Q 0.393 -0.28 0.339 -0.24 Q 0.292 -0.20600000000000002 0.195 -0.125 L 0.342 -0.125 Q 0.433 -0.125 0.444 -0.131 Q 0.457 -0.138 0.47000000000000003 -0.222 L 0.517 -0.222 Z"/></g><g transform="translate(1.9955987037037037,2.763997022222222) scale(0.7,0.7)"><path fill="rgb(127,0,255)" stroke="none" paint-order="stroke fill markers" d=" M 0.354 -0.623 L 0.354 -0.047 L 0.494 -0.047 L 0.494 0 Q 0.45 -0.003 0.295 -0.003 Q 0.14 -0.003 0.096 0 L 0.096 -0.047 L 0.23500000000000001 -0.047 L 0.23500000000000001 -0.5640000000000001 Q 0.17300000000000001 -0.544 0.105 -0.544 L 0.085 -0.544 L 0.085 -0.591 L 0.105 -0.591 Q 0.229 -0.591 0.306 -0.648 Q 0.315 -0.655 0.328 -0.655 Q 0.34600000000000003 -0.655 0.35000000000000003 -0.6485 Q 0.354 -0.642 0.354 -0.623 Z"/></g><g transform="translate(2.638838011111111,2.516780022222222)"><path fill="rgb(127,0,255)" stroke="none" paint-order="stroke fill markers" d=" M 0.47700000000000004 -0.22 L 0.47700000000000004 0.09 Q 0.47700000000000004 0.132 0.446 0.132 Q 0.41600000000000004 0.132 0.41600000000000004 0.09 L 0.41600000000000004 -0.22 L 0.107 -0.22 Q 0.064 -0.22 0.064 -0.25 Q 0.064 -0.281 0.107 -0.281 L 0.41600000000000004 -0.281 L 0.41600000000000004 -0.591 Q 0.41600000000000004 -0.633 0.447 -0.633 Q 0.47700000000000004 -0.633 0.47700000000000004 -0.591 L 0.47700000000000004 -0.281 L 0.786 -0.281 Q 0.8290000000000001 -0.281 0.8290000000000001 -0.25 Q 0.8290000000000001 -0.22 0.786 -0.22 L 0.47700000000000004 -0.22 Z"/></g><g transform="translate(3.7555008999999995,2.516780022222222)"><path fill="rgb(127,0,255)" stroke="none" paint-order="stroke fill markers" d=" M 0.517 -0.222 L 0.486 0 L 0.057 0 L 0.057 -0.018000000000000002 Q 0.057 -0.034 0.059000000000000004 -0.0385 Q 0.061 -0.043000000000000003 0.07 -0.052000000000000005 L 0.271 -0.257 Q 0.379 -0.367 0.379 -0.465 Q 0.379 -0.525 0.34400000000000003 -0.5665 Q 0.309 -0.608 0.247 -0.608 Q 0.186 -0.608 0.14400000000000002 -0.5730000000000001 Q 0.155 -0.5700000000000001 0.166 -0.5645 Q 0.177 -0.559 0.189 -0.542 Q 0.201 -0.525 0.201 -0.501 Q 0.201 -0.466 0.1785 -0.4475 Q 0.156 -0.429 0.129 -0.429 Q 0.10400000000000001 -0.429 0.0805 -0.4465 Q 0.057 -0.464 0.057 -0.503 Q 0.057 -0.5700000000000001 0.11850000000000001 -0.6125 Q 0.18 -0.655 0.272 -0.655 Q 0.379 -0.655 0.448 -0.603 Q 0.517 -0.551 0.517 -0.466 Q 0.517 -0.431 0.507 -0.404 Q 0.497 -0.377 0.46900000000000003 -0.34750000000000003 Q 0.441 -0.318 0.417 -0.299 Q 0.393 -0.28 0.339 -0.24 Q 0.292 -0.20600000000000002 0.195 -0.125 L 0.342 -0.125 Q 0.433 -0.125 0.444 -0.131 Q 0.457 -0.138 0.47000000000000003 -0.222 L 0.517 -0.222 Z"/></g><g transform="translate(4.330497899999999,2.516780022222222)"><path fill="rgb(127,0,255)" stroke="none" paint-order="stroke fill markers" d=" M 0.281 -0.659 L 0.222 -0.42 Q 0.274 -0.452 0.331 -0.452 Q 0.403 -0.452 0.4545 -0.41200000000000003 Q 0.506 -0.372 0.506 -0.28700000000000003 Q 0.506 -0.23700000000000002 0.4865 -0.1855 Q 0.467 -0.134 0.4325 -0.0905 Q 0.398 -0.047 0.3425 -0.0195 Q 0.28700000000000003 0.008 0.222 0.008 Q 0.154 0.008 0.10300000000000001 -0.03 Q 0.052000000000000005 -0.068 0.052000000000000005 -0.155 Q 0.052000000000000005 -0.19 0.066 -0.246 L 0.135 -0.522 Q 0.14400000000000002 -0.556 0.163 -0.637 Q 0.15 -0.639 0.121 -0.639 Q 0.095 -0.639 0.095 -0.657 Q 0.095 -0.67 0.101 -0.677 Q 0.107 -0.684 0.112 -0.685 Q 0.117 -0.686 0.127 -0.687 L 0.256 -0.6930000000000001 Q 0.258 -0.6940000000000001 0.263 -0.6940000000000001 Q 0.28500000000000003 -0.6940000000000001 0.28500000000000003 -0.676 Q 0.28500000000000003 -0.673 0.281 -0.659 M 0.224 -0.028 Q 0.253 -0.028 0.28650000000000003 -0.05 Q 0.32 -0.07200000000000001 0.343 -0.126 Q 0.357 -0.16 0.375 -0.232 Q 0.393 -0.304 0.393 -0.34 Q 0.393 -0.41600000000000004 0.326 -0.41600000000000004 Q 0.28500000000000003 -0.41600000000000004 0.2465 -0.3905 Q 0.20800000000000002 -0.365 0.203 -0.34800000000000003 Q 0.187 -0.279 0.169 -0.211 Q 0.152 -0.136 0.152 -0.111 Q 0.152 -0.028 0.224 -0.028 Z"/></g><g transform="translate(4.851327899999999,2.516780022222222)"><path fill="rgb(127,0,255)" stroke="none" paint-order="stroke fill markers" d=" M 0.536 -0.401 Q 0.516 -0.41600000000000004 0.488 -0.41600000000000004 Q 0.461 -0.41600000000000004 0.4375 -0.392 Q 0.41400000000000003 -0.368 0.403 -0.325 Q 0.4 -0.316 0.385 -0.257 Q 0.37 -0.198 0.368 -0.189 Q 0.34600000000000003 -0.099 0.34600000000000003 -0.078 Q 0.34600000000000003 -0.028 0.402 -0.028 Q 0.44 -0.028 0.482 -0.0575 Q 0.524 -0.08700000000000001 0.544 -0.149 Q 0.548 -0.162 0.5670000000000001 -0.162 Q 0.591 -0.162 0.591 -0.148 Q 0.591 -0.134 0.578 -0.1095 Q 0.5650000000000001 -0.085 0.542 -0.058 Q 0.519 -0.031 0.48 -0.0115 Q 0.441 0.008 0.397 0.008 Q 0.295 0.008 0.259 -0.053 Q 0.215 0.008 0.152 0.008 Q 0.105 0.008 0.07150000000000001 -0.0165 Q 0.038 -0.041 0.038 -0.08 Q 0.038 -0.115 0.06 -0.1365 Q 0.082 -0.158 0.11 -0.158 Q 0.133 -0.158 0.1465 -0.14400000000000002 Q 0.16 -0.13 0.16 -0.112 Q 0.16 -0.091 0.1455 -0.07050000000000001 Q 0.131 -0.05 0.106 -0.043000000000000003 Q 0.126 -0.028 0.154 -0.028 Q 0.181 -0.028 0.20450000000000002 -0.051500000000000004 Q 0.228 -0.075 0.23900000000000002 -0.11900000000000001 L 0.273 -0.256 Q 0.296 -0.34800000000000003 0.296 -0.366 Q 0.296 -0.41600000000000004 0.24 -0.41600000000000004 Q 0.202 -0.41600000000000004 0.16 -0.3865 Q 0.11800000000000001 -0.357 0.098 -0.295 Q 0.094 -0.28200000000000003 0.075 -0.28200000000000003 Q 0.051000000000000004 -0.28200000000000003 0.051000000000000004 -0.296 Q 0.051000000000000004 -0.31 0.064 -0.3345 Q 0.077 -0.359 0.1 -0.386 Q 0.123 -0.41300000000000003 0.162 -0.4325 Q 0.201 -0.452 0.245 -0.452 Q 0.34700000000000003 -0.452 0.383 -0.391 Q 0.427 -0.452 0.49 -0.452 Q 0.537 -0.452 0.5705 -0.4275 Q 0.604 -0.403 0.604 -0.364 Q 0.604 -0.329 0.582 -0.3075 Q 0.56 -0.28600000000000003 0.532 -0.28600000000000003 Q 0.509 -0.28600000000000003 0.4955 -0.3 Q 0.482 -0.314 0.482 -0.332 Q 0.482 -0.353 0.4965 -0.3735 Q 0.511 -0.394 0.536 -0.401 Z"/></g><g transform="translate(5.510354899999999,2.666780022222222) scale(0.7,0.7)"><path fill="rgb(127,0,255)" stroke="none" paint-order="stroke fill markers" d=" M 0.354 -0.623 L 0.354 -0.047 L 0.494 -0.047 L 0.494 0 Q 0.45 -0.003 0.295 -0.003 Q 0.14 -0.003 0.096 0 L 0.096 -0.047 L 0.23500000000000001 -0.047 L 0.23500000000000001 -0.5640000000000001 Q 0.17300000000000001 -0.544 0.105 -0.544 L 0.085 -0.544 L 0.085 -0.591 L 0.105 -0.591 Q 0.229 -0.591 0.306 -0.648 Q 0.315 -0.655 0.328 -0.655 Q 0.34600000000000003 -0.655 0.35000000000000003 -0.6485 Q 0.354 -0.642 0.354 -0.623 Z"/></g><g transform="translate(5.9128528,2.516780022222222)"><path fill="rgb(127,0,255)" stroke="none" paint-order="stroke fill markers" d=" M 0.536 -0.401 Q 0.516 -0.41600000000000004 0.488 -0.41600000000000004 Q 0.461 -0.41600000000000004 0.4375 -0.392 Q 0.41400000000000003 -0.368 0.403 -0.325 Q 0.4 -0.316 0.385 -0.257 Q 0.37 -0.198 0.368 -0.189 Q 0.34600000000000003 -0.099 0.34600000000000003 -0.078 Q 0.34600000000000003 -0.028 0.402 -0.028 Q 0.44 -0.028 0.482 -0.0575 Q 0.524 -0.08700000000000001 0.544 -0.149 Q 0.548 -0.162 0.5670000000000001 -0.162 Q 0.591 -0.162 0.591 -0.148 Q 0.591 -0.134 0.578 -0.1095 Q 0.5650000000000001 -0.085 0.542 -0.058 Q 0.519 -0.031 0.48 -0.0115 Q 0.441 0.008 0.397 0.008 Q 0.295 0.008 0.259 -0.053 Q 0.215 0.008 0.152 0.008 Q 0.105 0.008 0.07150000000000001 -0.0165 Q 0.038 -0.041 0.038 -0.08 Q 0.038 -0.115 0.06 -0.1365 Q 0.082 -0.158 0.11 -0.158 Q 0.133 -0.158 0.1465 -0.14400000000000002 Q 0.16 -0.13 0.16 -0.112 Q 0.16 -0.091 0.1455 -0.07050000000000001 Q 0.131 -0.05 0.106 -0.043000000000000003 Q 0.126 -0.028 0.154 -0.028 Q 0.181 -0.028 0.20450000000000002 -0.051500000000000004 Q 0.228 -0.075 0.23900000000000002 -0.11900000000000001 L 0.273 -0.256 Q 0.296 -0.34800000000000003 0.296 -0.366 Q 0.296 -0.41600000000000004 0.24 -0.41600000000000004 Q 0.202 -0.41600000000000004 0.16 -0.3865 Q 0.11800000000000001 -0.357 0.098 -0.295 Q 0.094 -0.28200000000000003 0.075 -0.28200000000000003 Q 0.051000000000000004 -0.28200000000000003 0.051000000000000004 -0.296 Q 0.051000000000000004 -0.31 0.064 -0.3345 Q 0.077 -0.359 0.1 -0.386 Q 0.123 -0.41300000000000003 0.162 -0.4325 Q 0.201 -0.452 0.245 -0.452 Q 0.34700000000000003 -0.452 0.383 -0.391 Q 0.427 -0.452 0.49 -0.452 Q 0.537 -0.452 0.5705 -0.4275 Q 0.604 -0.403 0.604 -0.364 Q 0.604 -0.329 0.582 -0.3075 Q 0.56 -0.28600000000000003 0.532 -0.28600000000000003 Q 0.509 -0.28600000000000003 0.4955 -0.3 Q 0.482 -0.314 0.482 -0.332 Q 0.482 -0.353 0.4965 -0.3735 Q 0.511 -0.394 0.536 -0.401 Z"/></g><g transform="translate(6.5718798,2.666780022222222) scale(0.7,0.7)"><path fill="rgb(127,0,255)" stroke="none" paint-order="stroke fill markers" d=" M 0.517 -0.222 L 0.486 0 L 0.057 0 L 0.057 -0.018000000000000002 Q 0.057 -0.034 0.059000000000000004 -0.0385 Q 0.061 -0.043000000000000003 0.07 -0.052000000000000005 L 0.271 -0.257 Q 0.379 -0.367 0.379 -0.465 Q 0.379 -0.525 0.34400000000000003 -0.5665 Q 0.309 -0.608 0.247 -0.608 Q 0.186 -0.608 0.14400000000000002 -0.5730000000000001 Q 0.155 -0.5700000000000001 0.166 -0.5645 Q 0.177 -0.559 0.189 -0.542 Q 0.201 -0.525 0.201 -0.501 Q 0.201 -0.466 0.1785 -0.4475 Q 0.156 -0.429 0.129 -0.429 Q 0.10400000000000001 -0.429 0.0805 -0.4465 Q 0.057 -0.464 0.057 -0.503 Q 0.057 -0.5700000000000001 0.11850000000000001 -0.6125 Q 0.18 -0.655 0.272 -0.655 Q 0.379 -0.655 0.448 -0.603 Q 0.517 -0.551 0.517 -0.466 Q 0.517 -0.431 0.507 -0.404 Q 0.497 -0.377 0.46900000000000003 -0.34750000000000003 Q 0.441 -0.318 0.417 -0.299 Q 0.393 -0.28 0.339 -0.24 Q 0.292 -0.20600000000000002 0.195 -0.125 L 0.342 -0.125 Q 0.433 -0.125 0.444 -0.131 Q 0.457 -0.138 0.47000000000000003 -0.222 L 0.517 -0.222 Z"/></g><g transform="translate(7.196600588888889,2.516780022222222)"><path fill="rgb(127,0,255)" stroke="none" paint-order="stroke fill markers" d=" M 0.47700000000000004 -0.22 L 0.47700000000000004 0.09 Q 0.47700000000000004 0.132 0.446 0.132 Q 0.41600000000000004 0.132 0.41600000000000004 0.09 L 0.41600000000000004 -0.22 L 0.107 -0.22 Q 0.064 -0.22 0.064 -0.25 Q 0.064 -0.281 0.107 -0.281 L 0.41600000000000004 -0.281 L 0.41600000000000004 -0.591 Q 0.41600000000000004 -0.633 0.447 -0.633 Q 0.47700000000000004 -0.633 0.47700000000000004 -0.591 L 0.47700000000000004 -0.281 L 0.786 -0.281 Q 0.8290000000000001 -0.281 0.8290000000000001 -0.25 Q 0.8290000000000001 -0.22 0.786 -0.22 L 0.47700000000000004 -0.22 Z"/></g><g transform="translate(8.313263477777777,2.516780022222222)"><path fill="rgb(127,0,255)" stroke="none" paint-order="stroke fill markers" d=" M 0.431 -0.396 Q 0.404 -0.41600000000000004 0.36 -0.41600000000000004 Q 0.268 -0.41600000000000004 0.217 -0.33 Q 0.196 -0.294 0.1785 -0.223 Q 0.161 -0.152 0.161 -0.121 Q 0.161 -0.028 0.26 -0.028 Q 0.396 -0.028 0.47100000000000003 -0.107 Q 0.481 -0.11800000000000001 0.486 -0.11800000000000001 Q 0.493 -0.11800000000000001 0.502 -0.108 Q 0.511 -0.098 0.511 -0.092 Q 0.511 -0.081 0.482 -0.0565 Q 0.453 -0.032 0.41300000000000003 -0.016 Q 0.35000000000000003 0.008 0.258 0.008 Q 0.149 0.008 0.0975 -0.041 Q 0.046 -0.09 0.046 -0.165 Q 0.046 -0.273 0.132 -0.3625 Q 0.218 -0.452 0.359 -0.452 Q 0.424 -0.452 0.4615 -0.426 Q 0.499 -0.4 0.499 -0.359 Q 0.499 -0.328 0.47850000000000004 -0.305 Q 0.458 -0.28200000000000003 0.427 -0.28200000000000003 Q 0.4 -0.28200000000000003 0.3885 -0.297 Q 0.377 -0.312 0.377 -0.328 Q 0.377 -0.334 0.3785 -0.3435 Q 0.38 -0.353 0.3935 -0.371 Q 0.40700000000000003 -0.389 0.431 -0.396 Z"/></g><g transform="translate(8.826686477777777,2.516780022222222)"><path fill="rgb(127,0,255)" stroke="none" paint-order="stroke fill markers" d=" M 0.536 -0.401 Q 0.516 -0.41600000000000004 0.488 -0.41600000000000004 Q 0.461 -0.41600000000000004 0.4375 -0.392 Q 0.41400000000000003 -0.368 0.403 -0.325 Q 0.4 -0.316 0.385 -0.257 Q 0.37 -0.198 0.368 -0.189 Q 0.34600000000000003 -0.099 0.34600000000000003 -0.078 Q 0.34600000000000003 -0.028 0.402 -0.028 Q 0.44 -0.028 0.482 -0.0575 Q 0.524 -0.08700000000000001 0.544 -0.149 Q 0.548 -0.162 0.5670000000000001 -0.162 Q 0.591 -0.162 0.591 -0.148 Q 0.591 -0.134 0.578 -0.1095 Q 0.5650000000000001 -0.085 0.542 -0.058 Q 0.519 -0.031 0.48 -0.0115 Q 0.441 0.008 0.397 0.008 Q 0.295 0.008 0.259 -0.053 Q 0.215 0.008 0.152 0.008 Q 0.105 0.008 0.07150000000000001 -0.0165 Q 0.038 -0.041 0.038 -0.08 Q 0.038 -0.115 0.06 -0.1365 Q 0.082 -0.158 0.11 -0.158 Q 0.133 -0.158 0.1465 -0.14400000000000002 Q 0.16 -0.13 0.16 -0.112 Q 0.16 -0.091 0.1455 -0.07050000000000001 Q 0.131 -0.05 0.106 -0.043000000000000003 Q 0.126 -0.028 0.154 -0.028 Q 0.181 -0.028 0.20450000000000002 -0.051500000000000004 Q 0.228 -0.075 0.23900000000000002 -0.11900000000000001 L 0.273 -0.256 Q 0.296 -0.34800000000000003 0.296 -0.366 Q 0.296 -0.41600000000000004 0.24 -0.41600000000000004 Q 0.202 -0.41600000000000004 0.16 -0.3865 Q 0.11800000000000001 -0.357 0.098 -0.295 Q 0.094 -0.28200000000000003 0.075 -0.28200000000000003 Q 0.051000000000000004 -0.28200000000000003 0.051000000000000004 -0.296 Q 0.051000000000000004 -0.31 0.064 -0.3345 Q 0.077 -0.359 0.1 -0.386 Q 0.123 -0.41300000000000003 0.162 -0.4325 Q 0.201 -0.452 0.245 -0.452 Q 0.34700000000000003 -0.452 0.383 -0.391 Q 0.427 -0.452 0.49 -0.452 Q 0.537 -0.452 0.5705 -0.4275 Q 0.604 -0.403 0.604 -0.364 Q 0.604 -0.329 0.582 -0.3075 Q 0.56 -0.28600000000000003 0.532 -0.28600000000000003 Q 0.509 -0.28600000000000003 0.4955 -0.3 Q 0.482 -0.314 0.482 -0.332 Q 0.482 -0.353 0.4965 -0.3735 Q 0.511 -0.394 0.536 -0.401 Z"/></g><g transform="translate(9.485713477777777,2.1038880222222223) scale(0.7,0.7)"><path fill="rgb(127,0,255)" stroke="none" paint-order="stroke fill markers" d=" M 0.517 -0.222 L 0.486 0 L 0.057 0 L 0.057 -0.018000000000000002 Q 0.057 -0.034 0.059000000000000004 -0.0385 Q 0.061 -0.043000000000000003 0.07 -0.052000000000000005 L 0.271 -0.257 Q 0.379 -0.367 0.379 -0.465 Q 0.379 -0.525 0.34400000000000003 -0.5665 Q 0.309 -0.608 0.247 -0.608 Q 0.186 -0.608 0.14400000000000002 -0.5730000000000001 Q 0.155 -0.5700000000000001 0.166 -0.5645 Q 0.177 -0.559 0.189 -0.542 Q 0.201 -0.525 0.201 -0.501 Q 0.201 -0.466 0.1785 -0.4475 Q 0.156 -0.429 0.129 -0.429 Q 0.10400000000000001 -0.429 0.0805 -0.4465 Q 0.057 -0.464 0.057 -0.503 Q 0.057 -0.5700000000000001 0.11850000000000001 -0.6125 Q 0.18 -0.655 0.272 -0.655 Q 0.379 -0.655 0.448 -0.603 Q 0.517 -0.551 0.517 -0.466 Q 0.517 -0.431 0.507 -0.404 Q 0.497 -0.377 0.46900000000000003 -0.34750000000000003 Q 0.441 -0.318 0.417 -0.299 Q 0.393 -0.28 0.339 -0.24 Q 0.292 -0.20600000000000002 0.195 -0.125 L 0.342 -0.125 Q 0.433 -0.125 0.444 -0.131 Q 0.457 -0.138 0.47000000000000003 -0.222 L 0.517 -0.222 Z"/></g><g transform="translate(9.485713477777777,2.763997022222222) scale(0.7,0.7)"><path fill="rgb(127,0,255)" stroke="none" paint-order="stroke fill markers" d=" M 0.517 -0.222 L 0.486 0 L 0.057 0 L 0.057 -0.018000000000000002 Q 0.057 -0.034 0.059000000000000004 -0.0385 Q 0.061 -0.043000000000000003 0.07 -0.052000000000000005 L 0.271 -0.257 Q 0.379 -0.367 0.379 -0.465 Q 0.379 -0.525 0.34400000000000003 -0.5665 Q 0.309 -0.608 0.247 -0.608 Q 0.186 -0.608 0.14400000000000002 -0.5730000000000001 Q 0.155 -0.5700000000000001 0.166 -0.5645 Q 0.177 -0.559 0.189 -0.542 Q 0.201 -0.525 0.201 -0.501 Q 0.201 -0.466 0.1785 -0.4475 Q 0.156 -0.429 0.129 -0.429 Q 0.10400000000000001 -0.429 0.0805 -0.4465 Q 0.057 -0.464 0.057 -0.503 Q 0.057 -0.5700000000000001 0.11850000000000001 -0.6125 Q 0.18 -0.655 0.272 -0.655 Q 0.379 -0.655 0.448 -0.603 Q 0.517 -0.551 0.517 -0.466 Q 0.517 -0.431 0.507 -0.404 Q 0.497 -0.377 0.46900000000000003 -0.34750000000000003 Q 0.441 -0.318 0.417 -0.299 Q 0.393 -0.28 0.339 -0.24 Q 0.292 -0.20600000000000002 0.195 -0.125 L 0.342 -0.125 Q 0.433 -0.125 0.444 -0.131 Q 0.457 -0.138 0.47000000000000003 -0.222 L 0.517 -0.222 Z"/></g><g transform="translate(10.184508507407406,2.516780022222222)"><path fill="rgb(127,0,255)" stroke="none" paint-order="stroke fill markers" d=" M 0.788 -0.332 L 0.105 -0.332 Q 0.064 -0.332 0.064 -0.362 Q 0.064 -0.393 0.11 -0.393 L 0.783 -0.393 Q 0.8290000000000001 -0.393 0.8290000000000001 -0.362 Q 0.8290000000000001 -0.332 0.788 -0.332 M 0.783 -0.108 L 0.11 -0.108 Q 0.064 -0.108 0.064 -0.139 Q 0.064 -0.169 0.105 -0.169 L 0.788 -0.169 Q 0.8290000000000001 -0.169 0.8290000000000001 -0.139 Q 0.8290000000000001 -0.108 0.783 -0.108 Z"/></g><g transform="translate(11.356727118518517,2.516780022222222)"><path fill="rgb(127,0,255)" stroke="none" paint-order="stroke fill markers" d=" M 0.354 -0.623 L 0.354 -0.047 L 0.494 -0.047 L 0.494 0 Q 0.45 -0.003 0.295 -0.003 Q 0.14 -0.003 0.096 0 L 0.096 -0.047 L 0.23500000000000001 -0.047 L 0.23500000000000001 -0.5640000000000001 Q 0.17300000000000001 -0.544 0.105 -0.544 L 0.085 -0.544 L 0.085 -0.591 L 0.105 -0.591 Q 0.229 -0.591 0.306 -0.648 Q 0.315 -0.655 0.328 -0.655 Q 0.34600000000000003 -0.655 0.35000000000000003 -0.6485 Q 0.354 -0.642 0.354 -0.623 Z"/></g></g></g><g transform="scale(27,27) translate(16.77777777777778,1.1111111111111112) scale(0.1,0.1)"><text fill="rgb(0,153,204)" stroke="none" font-family="Serif" font-size="10px" font-style="normal" font-weight="bold" text-decoration="normal" x="0" y="0" text-anchor="start" dominant-baseline="alphabetic">标准型</text><g transform="scale(10,10) translate(-16.77777777777778,-1.1111111111111112)"><g transform="translate(16.77777777777778,2.4056689111111114)"><path fill="rgb(0,153,204)" stroke="none" paint-order="stroke fill markers" d=" M 0.359 -0.638 L 0.615 -0.061 Q 0.63 -0.027 0.639 -0.018000000000000002 Q 0.644 -0.01 0.644 -0.006 Q 0.644 0.004 0.637 0.006 Q 0.63 0.008 0.614 0.008 L 0.5640000000000001 0.008 Q 0.515 0.008 0.501 -0.02 Q 0.499 -0.024 0.493 -0.0375 Q 0.487 -0.051000000000000004 0.486 -0.055 L 0.39 -0.271 Q 0.368 -0.25 0.3035 -0.1805 Q 0.23900000000000002 -0.111 0.226 -0.098 Q 0.177 -0.049 0.171 -0.04 Q 0.153 -0.02 0.1445 -0.012 Q 0.136 -0.004 0.122 0.004 Q 0.108 0.012 0.095 0.012 Q 0.076 0.012 0.0615 -0.002 Q 0.047 -0.016 0.047 -0.036000000000000004 Q 0.047 -0.065 0.079 -0.089 L 0.368 -0.322 Q 0.23700000000000002 -0.619 0.229 -0.631 Q 0.213 -0.655 0.186 -0.658 Q 0.184 -0.658 0.1815 -0.659 Q 0.179 -0.66 0.17500000000000002 -0.664 Q 0.171 -0.668 0.171 -0.675 Q 0.171 -0.6880000000000001 0.1805 -0.6910000000000001 Q 0.19 -0.6940000000000001 0.211 -0.6940000000000001 Q 0.255 -0.6940000000000001 0.28400000000000003 -0.6895 Q 0.313 -0.685 0.3275 -0.6755 Q 0.342 -0.666 0.34750000000000003 -0.659 Q 0.353 -0.652 0.359 -0.638 Z"/></g><g transform="translate(17.448607777777777,2.5556689111111113) scale(0.7,0.7)"><path fill="rgb(0,153,204)" stroke="none" paint-order="stroke fill markers" d=" M 0.354 -0.623 L 0.354 -0.047 L 0.494 -0.047 L 0.494 0 Q 0.45 -0.003 0.295 -0.003 Q 0.14 -0.003 0.096 0 L 0.096 -0.047 L 0.23500000000000001 -0.047 L 0.23500000000000001 -0.5640000000000001 Q 0.17300000000000001 -0.544 0.105 -0.544 L 0.085 -0.544 L 0.085 -0.591 L 0.105 -0.591 Q 0.229 -0.591 0.306 -0.648 Q 0.315 -0.655 0.328 -0.655 Q 0.34600000000000003 -0.655 0.35000000000000003 -0.6485 Q 0.354 -0.642 0.354 -0.623 Z"/></g><g transform="translate(17.851105677777777,2.4056689111111114)"><path fill="rgb(0,153,204)" stroke="none" paint-order="stroke fill markers" d=" M 0.577 -0.377 L 0.483 0.001 Q 0.461 0.09 0.3785 0.146 Q 0.296 0.202 0.20500000000000002 0.202 Q 0.145 0.202 0.108 0.178 Q 0.07100000000000001 0.154 0.07100000000000001 0.115 Q 0.07100000000000001 0.083 0.0925 0.061 Q 0.114 0.039 0.14300000000000002 0.039 Q 0.162 0.039 0.177 0.05 Q 0.192 0.061 0.192 0.085 Q 0.192 0.132 0.14400000000000002 0.152 Q 0.167 0.166 0.20500000000000002 0.166 Q 0.26 0.166 0.3085 0.116 Q 0.357 0.066 0.377 -0.022 Q 0.334 0.008 0.281 0.008 Q 0.254 0.008 0.2305 0.0035 Q 0.20700000000000002 -0.001 0.1805 -0.0135 Q 0.154 -0.026000000000000002 0.138 -0.054 Q 0.122 -0.082 0.122 -0.122 Q 0.122 -0.157 0.1355 -0.2005 Q 0.149 -0.244 0.182 -0.33 Q 0.199 -0.375 0.199 -0.395 Q 0.199 -0.405 0.196 -0.41000000000000003 Q 0.193 -0.41500000000000004 0.19 -0.41550000000000004 Q 0.187 -0.41600000000000004 0.182 -0.41600000000000004 Q 0.17400000000000002 -0.41600000000000004 0.1635 -0.41200000000000003 Q 0.153 -0.40800000000000003 0.1375 -0.3975 Q 0.122 -0.387 0.106 -0.3605 Q 0.09 -0.334 0.079 -0.295 Q 0.075 -0.28200000000000003 0.056 -0.28200000000000003 Q 0.032 -0.28200000000000003 0.032 -0.296 Q 0.032 -0.306 0.042 -0.3295 Q 0.052000000000000005 -0.353 0.07 -0.3815 Q 0.088 -0.41000000000000003 0.11950000000000001 -0.431 Q 0.151 -0.452 0.188 -0.452 Q 0.233 -0.452 0.267 -0.4275 Q 0.301 -0.403 0.301 -0.362 Q 0.301 -0.34600000000000003 0.28800000000000003 -0.312 Q 0.229 -0.16 0.229 -0.101 Q 0.229 -0.028 0.289 -0.028 Q 0.319 -0.028 0.357 -0.052000000000000005 Q 0.36 -0.054 0.3675 -0.06 Q 0.375 -0.066 0.3845 -0.078 Q 0.394 -0.09 0.396 -0.1 Q 0.403 -0.127 0.438 -0.266 L 0.464 -0.37 Q 0.468 -0.385 0.47100000000000003 -0.394 Q 0.47400000000000003 -0.403 0.482 -0.4165 Q 0.49 -0.43 0.5035000000000001 -0.437 Q 0.517 -0.444 0.535 -0.444 Q 0.557 -0.444 0.5695 -0.431 Q 0.582 -0.418 0.582 -0.4 Q 0.582 -0.395 0.577 -0.377 Z"/></g><g transform="translate(18.478419677777776,1.9927769111111113) scale(0.7,0.7)"><path fill="rgb(0,153,204)" stroke="none" paint-order="stroke fill markers" d=" M 0.517 -0.222 L 0.486 0 L 0.057 0 L 0.057 -0.018000000000000002 Q 0.057 -0.034 0.059000000000000004 -0.0385 Q 0.061 -0.043000000000000003 0.07 -0.052000000000000005 L 0.271 -0.257 Q 0.379 -0.367 0.379 -0.465 Q 0.379 -0.525 0.34400000000000003 -0.5665 Q 0.309 -0.608 0.247 -0.608 Q 0.186 -0.608 0.14400000000000002 -0.5730000000000001 Q 0.155 -0.5700000000000001 0.166 -0.5645 Q 0.177 -0.559 0.189 -0.542 Q 0.201 -0.525 0.201 -0.501 Q 0.201 -0.466 0.1785 -0.4475 Q 0.156 -0.429 0.129 -0.429 Q 0.10400000000000001 -0.429 0.0805 -0.4465 Q 0.057 -0.464 0.057 -0.503 Q 0.057 -0.5700000000000001 0.11850000000000001 -0.6125 Q 0.18 -0.655 0.272 -0.655 Q 0.379 -0.655 0.448 -0.603 Q 0.517 -0.551 0.517 -0.466 Q 0.517 -0.431 0.507 -0.404 Q 0.497 -0.377 0.46900000000000003 -0.34750000000000003 Q 0.441 -0.318 0.417 -0.299 Q 0.393 -0.28 0.339 -0.24 Q 0.292 -0.20600000000000002 0.195 -0.125 L 0.342 -0.125 Q 0.433 -0.125 0.444 -0.131 Q 0.457 -0.138 0.47000000000000003 -0.222 L 0.517 -0.222 Z"/></g><g transform="translate(18.441381677777777,2.6528859111111114) scale(0.7,0.7)"><path fill="rgb(0,153,204)" stroke="none" paint-order="stroke fill markers" d=" M 0.354 -0.623 L 0.354 -0.047 L 0.494 -0.047 L 0.494 0 Q 0.45 -0.003 0.295 -0.003 Q 0.14 -0.003 0.096 0 L 0.096 -0.047 L 0.23500000000000001 -0.047 L 0.23500000000000001 -0.5640000000000001 Q 0.17300000000000001 -0.544 0.105 -0.544 L 0.085 -0.544 L 0.085 -0.591 L 0.105 -0.591 Q 0.229 -0.591 0.306 -0.648 Q 0.315 -0.655 0.328 -0.655 Q 0.34600000000000003 -0.655 0.35000000000000003 -0.6485 Q 0.354 -0.642 0.354 -0.623 Z"/></g><g transform="translate(19.121658985185185,2.4056689111111114)"><path fill="rgb(0,153,204)" stroke="none" paint-order="stroke fill markers" d=" M 0.47700000000000004 -0.22 L 0.47700000000000004 0.09 Q 0.47700000000000004 0.132 0.446 0.132 Q 0.41600000000000004 0.132 0.41600000000000004 0.09 L 0.41600000000000004 -0.22 L 0.107 -0.22 Q 0.064 -0.22 0.064 -0.25 Q 0.064 -0.281 0.107 -0.281 L 0.41600000000000004 -0.281 L 0.41600000000000004 -0.591 Q 0.41600000000000004 -0.633 0.447 -0.633 Q 0.47700000000000004 -0.633 0.47700000000000004 -0.591 L 0.47700000000000004 -0.281 L 0.786 -0.281 Q 0.8290000000000001 -0.281 0.8290000000000001 -0.25 Q 0.8290000000000001 -0.22 0.786 -0.22 L 0.47700000000000004 -0.22 Z"/></g><g transform="translate(20.238321874074074,2.4056689111111114)"><path fill="rgb(0,153,204)" stroke="none" paint-order="stroke fill markers" d=" M 0.359 -0.638 L 0.615 -0.061 Q 0.63 -0.027 0.639 -0.018000000000000002 Q 0.644 -0.01 0.644 -0.006 Q 0.644 0.004 0.637 0.006 Q 0.63 0.008 0.614 0.008 L 0.5640000000000001 0.008 Q 0.515 0.008 0.501 -0.02 Q 0.499 -0.024 0.493 -0.0375 Q 0.487 -0.051000000000000004 0.486 -0.055 L 0.39 -0.271 Q 0.368 -0.25 0.3035 -0.1805 Q 0.23900000000000002 -0.111 0.226 -0.098 Q 0.177 -0.049 0.171 -0.04 Q 0.153 -0.02 0.1445 -0.012 Q 0.136 -0.004 0.122 0.004 Q 0.108 0.012 0.095 0.012 Q 0.076 0.012 0.0615 -0.002 Q 0.047 -0.016 0.047 -0.036000000000000004 Q 0.047 -0.065 0.079 -0.089 L 0.368 -0.322 Q 0.23700000000000002 -0.619 0.229 -0.631 Q 0.213 -0.655 0.186 -0.658 Q 0.184 -0.658 0.1815 -0.659 Q 0.179 -0.66 0.17500000000000002 -0.664 Q 0.171 -0.668 0.171 -0.675 Q 0.171 -0.6880000000000001 0.1805 -0.6910000000000001 Q 0.19 -0.6940000000000001 0.211 -0.6940000000000001 Q 0.255 -0.6940000000000001 0.28400000000000003 -0.6895 Q 0.313 -0.685 0.3275 -0.6755 Q 0.342 -0.666 0.34750000000000003 -0.659 Q 0.353 -0.652 0.359 -0.638 Z"/></g><g transform="translate(20.909151874074073,2.5556689111111113) scale(0.7,0.7)"><path fill="rgb(0,153,204)" stroke="none" paint-order="stroke fill markers" d=" M 0.517 -0.222 L 0.486 0 L 0.057 0 L 0.057 -0.018000000000000002 Q 0.057 -0.034 0.059000000000000004 -0.0385 Q 0.061 -0.043000000000000003 0.07 -0.052000000000000005 L 0.271 -0.257 Q 0.379 -0.367 0.379 -0.465 Q 0.379 -0.525 0.34400000000000003 -0.5665 Q 0.309 -0.608 0.247 -0.608 Q 0.186 -0.608 0.14400000000000002 -0.5730000000000001 Q 0.155 -0.5700000000000001 0.166 -0.5645 Q 0.177 -0.559 0.189 -0.542 Q 0.201 -0.525 0.201 -0.501 Q 0.201 -0.466 0.1785 -0.4475 Q 0.156 -0.429 0.129 -0.429 Q 0.10400000000000001 -0.429 0.0805 -0.4465 Q 0.057 -0.464 0.057 -0.503 Q 0.057 -0.5700000000000001 0.11850000000000001 -0.6125 Q 0.18 -0.655 0.272 -0.655 Q 0.379 -0.655 0.448 -0.603 Q 0.517 -0.551 0.517 -0.466 Q 0.517 -0.431 0.507 -0.404 Q 0.497 -0.377 0.46900000000000003 -0.34750000000000003 Q 0.441 -0.318 0.417 -0.299 Q 0.393 -0.28 0.339 -0.24 Q 0.292 -0.20600000000000002 0.195 -0.125 L 0.342 -0.125 Q 0.433 -0.125 0.444 -0.131 Q 0.457 -0.138 0.47000000000000003 -0.222 L 0.517 -0.222 Z"/></g><g transform="translate(21.311649774074073,2.4056689111111114)"><path fill="rgb(0,153,204)" stroke="none" paint-order="stroke fill markers" d=" M 0.577 -0.377 L 0.483 0.001 Q 0.461 0.09 0.3785 0.146 Q 0.296 0.202 0.20500000000000002 0.202 Q 0.145 0.202 0.108 0.178 Q 0.07100000000000001 0.154 0.07100000000000001 0.115 Q 0.07100000000000001 0.083 0.0925 0.061 Q 0.114 0.039 0.14300000000000002 0.039 Q 0.162 0.039 0.177 0.05 Q 0.192 0.061 0.192 0.085 Q 0.192 0.132 0.14400000000000002 0.152 Q 0.167 0.166 0.20500000000000002 0.166 Q 0.26 0.166 0.3085 0.116 Q 0.357 0.066 0.377 -0.022 Q 0.334 0.008 0.281 0.008 Q 0.254 0.008 0.2305 0.0035 Q 0.20700000000000002 -0.001 0.1805 -0.0135 Q 0.154 -0.026000000000000002 0.138 -0.054 Q 0.122 -0.082 0.122 -0.122 Q 0.122 -0.157 0.1355 -0.2005 Q 0.149 -0.244 0.182 -0.33 Q 0.199 -0.375 0.199 -0.395 Q 0.199 -0.405 0.196 -0.41000000000000003 Q 0.193 -0.41500000000000004 0.19 -0.41550000000000004 Q 0.187 -0.41600000000000004 0.182 -0.41600000000000004 Q 0.17400000000000002 -0.41600000000000004 0.1635 -0.41200000000000003 Q 0.153 -0.40800000000000003 0.1375 -0.3975 Q 0.122 -0.387 0.106 -0.3605 Q 0.09 -0.334 0.079 -0.295 Q 0.075 -0.28200000000000003 0.056 -0.28200000000000003 Q 0.032 -0.28200000000000003 0.032 -0.296 Q 0.032 -0.306 0.042 -0.3295 Q 0.052000000000000005 -0.353 0.07 -0.3815 Q 0.088 -0.41000000000000003 0.11950000000000001 -0.431 Q 0.151 -0.452 0.188 -0.452 Q 0.233 -0.452 0.267 -0.4275 Q 0.301 -0.403 0.301 -0.362 Q 0.301 -0.34600000000000003 0.28800000000000003 -0.312 Q 0.229 -0.16 0.229 -0.101 Q 0.229 -0.028 0.289 -0.028 Q 0.319 -0.028 0.357 -0.052000000000000005 Q 0.36 -0.054 0.3675 -0.06 Q 0.375 -0.066 0.3845 -0.078 Q 0.394 -0.09 0.396 -0.1 Q 0.403 -0.127 0.438 -0.266 L 0.464 -0.37 Q 0.468 -0.385 0.47100000000000003 -0.394 Q 0.47400000000000003 -0.403 0.482 -0.4165 Q 0.49 -0.43 0.5035000000000001 -0.437 Q 0.517 -0.444 0.535 -0.444 Q 0.557 -0.444 0.5695 -0.431 Q 0.582 -0.418 0.582 -0.4 Q 0.582 -0.395 0.577 -0.377 Z"/></g><g transform="translate(21.93896377407407,1.9927769111111113) scale(0.7,0.7)"><path fill="rgb(0,153,204)" stroke="none" paint-order="stroke fill markers" d=" M 0.517 -0.222 L 0.486 0 L 0.057 0 L 0.057 -0.018000000000000002 Q 0.057 -0.034 0.059000000000000004 -0.0385 Q 0.061 -0.043000000000000003 0.07 -0.052000000000000005 L 0.271 -0.257 Q 0.379 -0.367 0.379 -0.465 Q 0.379 -0.525 0.34400000000000003 -0.5665 Q 0.309 -0.608 0.247 -0.608 Q 0.186 -0.608 0.14400000000000002 -0.5730000000000001 Q 0.155 -0.5700000000000001 0.166 -0.5645 Q 0.177 -0.559 0.189 -0.542 Q 0.201 -0.525 0.201 -0.501 Q 0.201 -0.466 0.1785 -0.4475 Q 0.156 -0.429 0.129 -0.429 Q 0.10400000000000001 -0.429 0.0805 -0.4465 Q 0.057 -0.464 0.057 -0.503 Q 0.057 -0.5700000000000001 0.11850000000000001 -0.6125 Q 0.18 -0.655 0.272 -0.655 Q 0.379 -0.655 0.448 -0.603 Q 0.517 -0.551 0.517 -0.466 Q 0.517 -0.431 0.507 -0.404 Q 0.497 -0.377 0.46900000000000003 -0.34750000000000003 Q 0.441 -0.318 0.417 -0.299 Q 0.393 -0.28 0.339 -0.24 Q 0.292 -0.20600000000000002 0.195 -0.125 L 0.342 -0.125 Q 0.433 -0.125 0.444 -0.131 Q 0.457 -0.138 0.47000000000000003 -0.222 L 0.517 -0.222 Z"/></g><g transform="translate(21.901925774074073,2.6528859111111114) scale(0.7,0.7)"><path fill="rgb(0,153,204)" stroke="none" paint-order="stroke fill markers" d=" M 0.517 -0.222 L 0.486 0 L 0.057 0 L 0.057 -0.018000000000000002 Q 0.057 -0.034 0.059000000000000004 -0.0385 Q 0.061 -0.043000000000000003 0.07 -0.052000000000000005 L 0.271 -0.257 Q 0.379 -0.367 0.379 -0.465 Q 0.379 -0.525 0.34400000000000003 -0.5665 Q 0.309 -0.608 0.247 -0.608 Q 0.186 -0.608 0.14400000000000002 -0.5730000000000001 Q 0.155 -0.5700000000000001 0.166 -0.5645 Q 0.177 -0.559 0.189 -0.542 Q 0.201 -0.525 0.201 -0.501 Q 0.201 -0.466 0.1785 -0.4475 Q 0.156 -0.429 0.129 -0.429 Q 0.10400000000000001 -0.429 0.0805 -0.4465 Q 0.057 -0.464 0.057 -0.503 Q 0.057 -0.5700000000000001 0.11850000000000001 -0.6125 Q 0.18 -0.655 0.272 -0.655 Q 0.379 -0.655 0.448 -0.603 Q 0.517 -0.551 0.517 -0.466 Q 0.517 -0.431 0.507 -0.404 Q 0.497 -0.377 0.46900000000000003 -0.34750000000000003 Q 0.441 -0.318 0.417 -0.299 Q 0.393 -0.28 0.339 -0.24 Q 0.292 -0.20600000000000002 0.195 -0.125 L 0.342 -0.125 Q 0.433 -0.125 0.444 -0.131 Q 0.457 -0.138 0.47000000000000003 -0.222 L 0.517 -0.222 Z"/></g><g transform="translate(22.6377588037037,2.4056689111111114)"><path fill="rgb(0,153,204)" stroke="none" paint-order="stroke fill markers" d=" M 0.788 -0.332 L 0.105 -0.332 Q 0.064 -0.332 0.064 -0.362 Q 0.064 -0.393 0.11 -0.393 L 0.783 -0.393 Q 0.8290000000000001 -0.393 0.8290000000000001 -0.362 Q 0.8290000000000001 -0.332 0.788 -0.332 M 0.783 -0.108 L 0.11 -0.108 Q 0.064 -0.108 0.064 -0.139 Q 0.064 -0.169 0.105 -0.169 L 0.788 -0.169 Q 0.8290000000000001 -0.169 0.8290000000000001 -0.139 Q 0.8290000000000001 -0.108 0.783 -0.108 Z"/></g><g transform="translate(23.80997741481481,2.4056689111111114)"><path fill="rgb(0,153,204)" stroke="none" paint-order="stroke fill markers" d=" M 0.354 -0.623 L 0.354 -0.047 L 0.494 -0.047 L 0.494 0 Q 0.45 -0.003 0.295 -0.003 Q 0.14 -0.003 0.096 0 L 0.096 -0.047 L 0.23500000000000001 -0.047 L 0.23500000000000001 -0.5640000000000001 Q 0.17300000000000001 -0.544 0.105 -0.544 L 0.085 -0.544 L 0.085 -0.591 L 0.105 -0.591 Q 0.229 -0.591 0.306 -0.648 Q 0.315 -0.655 0.328 -0.655 Q 0.34600000000000003 -0.655 0.35000000000000003 -0.6485 Q 0.354 -0.642 0.354 -0.623 Z"/></g></g></g><g transform="scale(27,27)"><g transform="translate(13.500000833333333,7.4039120370370375)"><path fill="rgb(0,0,0)" stroke="none" paint-order="stroke fill markers" d=" M 0.687 -0.327 L 0.09 -0.327 Q 0.058 -0.327 0.056 -0.34700000000000003 Q 0.056 -0.367 0.089 -0.367 L 0.6880000000000001 -0.367 Q 0.72 -0.367 0.721 -0.34700000000000003 Q 0.721 -0.327 0.687 -0.327 M 0.6880000000000001 -0.133 L 0.089 -0.133 Q 0.057 -0.133 0.056 -0.153 Q 0.056 -0.17300000000000001 0.09 -0.17300000000000001 L 0.687 -0.17300000000000001 Q 0.719 -0.17300000000000001 0.721 -0.153 Q 0.721 -0.133 0.6880000000000001 -0.133 Z"/></g><g transform="translate(14.133336960853761,7.4039120370370375)"><path fill="rgb(0,0,0)" stroke="none" paint-order="stroke fill markers" d=" M 0.706 -0.327 L 0.09 -0.327 Q 0.058 -0.327 0.056 -0.34700000000000003 Q 0.056 -0.367 0.089 -0.367 L 0.679 -0.367 Q 0.599 -0.455 0.579 -0.513 Q 0.579 -0.525 0.599 -0.525 Q 0.61 -0.525 0.614 -0.522 L 0.627 -0.5 Q 0.724 -0.32 0.926 -0.263 Q 0.9410000000000001 -0.259 0.9420000000000001 -0.25 Q 0.9420000000000001 -0.241 0.925 -0.23700000000000002 Q 0.721 -0.179 0.624 0.006 Q 0.614 0.023 0.609 0.024 L 0.608 0.025 L 0.599 0.025 Q 0.579 0.025 0.579 0.013000000000000001 Q 0.579 0 0.611 -0.047 Q 0.638 -0.088 0.679 -0.133 L 0.089 -0.133 Q 0.057 -0.133 0.056 -0.153 Q 0.056 -0.17300000000000001 0.09 -0.17300000000000001 L 0.706 -0.17300000000000001 Q 0.723 -0.17300000000000001 0.733 -0.18 L 0.734 -0.181 L 0.736 -0.183 Q 0.795 -0.226 0.851 -0.25 Q 0.79 -0.277 0.737 -0.317 Q 0.724 -0.327 0.706 -0.327 Z"/></g></g></g></g></svg>